<svg width="1273" height="719" viewBox="0 0 1273 719" fill="none" xmlns="http://www.w3.org/2000/svg">
<path d="M973 -26H-23.0963L-41 719C-41 719 227.148 676.094 319.32 646.106C411.491 616.117 421.199 577.015 533.516 569.495C645.832 561.975 752.284 521.962 693.045 464.684C660.015 432.748 629.707 376.081 727.336 329.793C787.227 301.397 798.901 271.878 798.901 209.002C799.089 151.017 819.959 131.921 910.72 91.501C970.346 64.9467 960.102 32.0468 973 -26Z" fill="#C8E7ED"/>
<ellipse cx="797.053" cy="239.027" rx="5.05255" ry="5.02719" fill="#94D2FD" fill-opacity="0.4"/>
<ellipse cx="797.052" cy="239.027" rx="2.24558" ry="2.23431" fill="#18B6D8"/>
<ellipse cx="891.053" cy="100.027" rx="5.05255" ry="5.02719" fill="#94D2FD" fill-opacity="0.4"/>
<ellipse cx="891.052" cy="100.027" rx="2.24558" ry="2.23431" fill="#18B6D8"/>
<ellipse cx="680.496" cy="361.464" rx="6.49614" ry="6.46353" fill="#94D2FD" fill-opacity="0.4"/>
<ellipse cx="680.496" cy="361.463" rx="2.88717" ry="2.87268" fill="#18B6D8"/>
<ellipse cx="635.94" cy="551.9" rx="7.93972" ry="7.89987" fill="#94D2FD" fill-opacity="0.4"/>
<ellipse cx="635.94" cy="551.9" rx="3.52877" ry="3.51105" fill="#18B6D8"/>
<ellipse cx="383.827" cy="617.773" rx="10.8269" ry="10.7725" fill="#94D2FD" fill-opacity="0.4"/>
<ellipse cx="383.828" cy="617.772" rx="4.81195" ry="4.7878" fill="#18B6D8"/>
<path d="M914 -8H-12.0097L-19 719C-19 719 232.651 665.321 306.313 617.769C379.976 570.216 401.025 553.441 505.438 546.44C609.852 539.438 708.814 502.184 653.743 448.855C623.037 419.12 594.861 366.36 685.621 323.263C741.298 296.826 752.15 269.341 752.15 210.8C752.326 156.813 771.727 139.034 856.102 101.4C911.533 76.6765 902.01 46.0449 914 -8Z" fill="#04778F"/>
<path d="M914 -8H-10V719C-10 719 263.412 630.042 292.584 577.366C321.756 524.69 382.612 517.192 481.863 510.642C581.114 504.093 675.327 469.381 622.835 419.358C593.647 391.543 566.865 342.19 653.137 301.876C708.118 278.045 716.376 228.582 716.376 196.673C716.543 146.172 732.197 122.127 815.188 94.3367C902.471 65.1098 902.603 42.5555 914 -8Z" fill="url(#paint0_linear)"/>
<circle cx="99" cy="43" r="304" stroke="#FCFCFC" stroke-opacity="0.2" stroke-width="2" stroke-linecap="round" stroke-dasharray="1 5"/>
<path d="M302.157 41.4512C302.157 152.972 210.235 245.382 94.3536 245.382C-21.5275 245.382 -113.45 152.972 -113.45 41.4512C-113.45 -70.0699 -21.5275 -162.48 94.3536 -162.48C210.235 -162.48 302.157 -70.0699 302.157 41.4512Z" stroke="white" stroke-opacity="0.1" stroke-width="180"/>
<circle cx="90.4796" cy="39.128" r="135.703" stroke="#FCFCFC" stroke-opacity="0.2" stroke-width="2" stroke-linecap="round"/>
<path d="M945.247 145.585C1043.52 145.585 1011.96 96.4026 1063 88.5635C1117.57 80.1827 1119.79 167.903 1158.26 177.934C1200.2 188.867 1237.71 150.192 1259.57 183.231C1279.25 212.972 1234.7 234.969 1239.22 272.254C1242.89 302.435 1273 321.77 1273 347.239C1273 400.594 1203.28 399.474 1215.84 446.75C1226.67 487.479 1274.97 479.704 1259.57 529.153C1252.16 552.93 1200.97 562.351 1175.15 585.638C1142.21 615.34 1154.17 671.999 1098 671.999C1041.84 671.999 993.254 641.83 956.503 617.642C919.752 593.454 678.827 633.337 757.795 551.253C836.764 469.168 745.741 466.817 742.212 398.109C739.901 353.126 879.444 334.571 870.353 272.254C861.262 209.938 846.976 145.585 945.247 145.585Z" fill="#C8E7ED"/>
<line x1="1178.33" y1="168.638" x2="1178.33" y2="302.007" stroke="#37AFC8" stroke-width="5" stroke-linecap="round" stroke-dasharray="10 10"/>
<line x1="1194.61" y1="151.545" x2="1194.61" y2="284.915" stroke="#37AFC8" stroke-width="5" stroke-linecap="round" stroke-dasharray="10 10"/>
<line x1="1210.89" y1="134.453" x2="1210.89" y2="267.822" stroke="#37AFC8" stroke-width="5" stroke-linecap="round" stroke-dasharray="10 10"/>
<line x1="2.5" y1="-2.5" x2="135.869" y2="-2.5" transform="matrix(-4.37114e-08 1 1 4.37114e-08 848.626 542.177)" stroke="#37AFC8" stroke-width="5" stroke-linecap="round" stroke-dasharray="10 10"/>
<line x1="2.5" y1="-2.5" x2="135.869" y2="-2.5" transform="matrix(-4.37114e-08 1 1 4.37114e-08 832.348 525.084)" stroke="#37AFC8" stroke-width="5" stroke-linecap="round" stroke-dasharray="10 10"/>
<line x1="2.5" y1="-2.5" x2="135.869" y2="-2.5" transform="matrix(-4.37114e-08 1 1 4.37114e-08 816.068 507.991)" stroke="#37AFC8" stroke-width="5" stroke-linecap="round" stroke-dasharray="10 10"/>
<line x1="1135.5" y1="589.756" x2="1135.5" y2="598.779" stroke="#37AFC8" stroke-width="4" stroke-linecap="round"/>
<line x1="1130.62" y1="593.896" x2="1139.64" y2="593.896" stroke="#37AFC8" stroke-width="4" stroke-linecap="round"/>
<line x1="982.884" y1="171" x2="982.884" y2="180.023" stroke="#37AFC8" stroke-width="4" stroke-linecap="round"/>
<line x1="978" y1="175.139" x2="987.023" y2="175.139" stroke="#37AFC8" stroke-width="4" stroke-linecap="round"/>
<line x1="1047.88" y1="254" x2="1047.88" y2="263.023" stroke="white" stroke-width="4" stroke-linecap="round"/>
<line x1="1043" y1="258.139" x2="1052.02" y2="258.139" stroke="white" stroke-width="4" stroke-linecap="round"/>
<line x1="1202.25" y1="334.995" x2="1202.25" y2="344.018" stroke="#37AFC8" stroke-width="4" stroke-linecap="round"/>
<line x1="1197.36" y1="339.134" x2="1206.39" y2="339.134" stroke="#37AFC8" stroke-width="4" stroke-linecap="round"/>
<circle cx="1182.75" cy="507.583" r="5.91846" stroke="#37AFC8" stroke-width="2"/>
<circle cx="968.918" cy="356.918" r="5.91846" fill="#F7EFEF" stroke="white" stroke-width="2"/>
<circle cx="1074.92" cy="464.918" r="5.91846" stroke="#37AFC8" stroke-width="2"/>
<circle cx="816.475" cy="435.144" r="5.91846" stroke="#37AFC8" stroke-width="2"/>
<circle cx="1121.92" cy="193.918" r="5.91846" stroke="#37AFC8" stroke-width="2"/>
<circle cx="902.752" cy="272.356" r="5.91846" stroke="#37AFC8" stroke-width="2"/>
<path d="M1165.92 383.968C1168.56 391.737 1152.3 397.236 1162.04 409.581C1171.79 421.925 1165.9 427.088 1162.31 437.633" stroke="#37AFC8" stroke-width="2" stroke-linecap="round" stroke-dasharray="3 5"/>
<path d="M872.905 331.062C875.548 338.832 859.281 344.33 869.026 356.675C878.771 369.02 872.879 374.182 869.292 384.728" stroke="#37AFC8" stroke-width="2" stroke-linecap="round" stroke-dasharray="3 5"/>
<path d="M936.864 445.658C934.163 453.408 917.96 447.726 918.039 463.453C918.118 479.18 910.297 479.621 900.977 485.723" stroke="white" stroke-width="2" stroke-linecap="round" stroke-dasharray="3 5"/>
<path d="M1068.73 650.668C1060.57 651.567 1058.72 634.495 1044.56 641.337C1030.4 648.179 1026.63 641.31 1017.11 635.526" stroke="#37AFC8" stroke-width="2" stroke-linecap="round" stroke-dasharray="3 5"/>
<path d="M1094.18 355.09L1101.11 360.129C1101.81 360.638 1102.1 361.541 1101.84 362.365L1099.19 370.517C1098.92 371.341 1098.15 371.899 1097.29 371.899H1088.71C1087.85 371.899 1087.08 371.341 1086.81 370.517L1084.16 362.365C1083.9 361.541 1084.19 360.638 1084.89 360.129L1091.82 355.09C1092.53 354.581 1093.47 354.581 1094.18 355.09Z" stroke="white" stroke-width="2"/>
<path d="M1069.18 102.09L1076.11 107.129C1076.81 107.638 1077.1 108.541 1076.84 109.365L1074.19 117.517C1073.92 118.341 1073.15 118.899 1072.29 118.899H1063.71C1062.85 118.899 1062.08 118.341 1061.81 117.517L1059.16 109.365C1058.9 108.541 1059.19 107.638 1059.89 107.129L1066.82 102.09C1067.53 101.581 1068.47 101.581 1069.18 102.09Z" stroke="white" stroke-width="2"/>
<path d="M911.176 568.09L918.11 573.129C918.811 573.638 919.105 574.541 918.837 575.365L916.188 583.517C915.92 584.341 915.152 584.899 914.286 584.899H905.714C904.848 584.899 904.08 584.341 903.812 583.517L901.163 575.365C900.895 574.541 901.189 573.638 901.89 573.129L908.824 568.09C909.525 567.581 910.475 567.581 911.176 568.09Z" stroke="white" stroke-width="2"/>
<path d="M1038.18 543.09L1045.11 548.129C1045.81 548.638 1046.1 549.541 1045.84 550.365L1043.19 558.517C1042.92 559.341 1042.15 559.899 1041.29 559.899H1032.71C1031.85 559.899 1031.08 559.341 1030.81 558.517L1028.16 550.365C1027.9 549.541 1028.19 548.638 1028.89 548.129L1035.82 543.09C1036.53 542.581 1037.47 542.581 1038.18 543.09Z" stroke="white" stroke-width="2"/>
<defs>
<linearGradient id="paint0_linear" x1="543.824" y1="304.119" x2="168.441" y2="-119.866" gradientUnits="userSpaceOnUse">
<stop stop-color="#0C91AD"/>
<stop offset="1" stop-color="#67D0E6"/>
</linearGradient>
</defs>
</svg>
