<svg width="1340" height="650" viewBox="0 0 1340 650" fill="none" xmlns="http://www.w3.org/2000/svg">
<rect width="1340" height="650" fill="white"/>
<path d="M0 22.5007C0 22.5007 96.4265 82.1108 166 91.5008C228.02 99.8713 265.009 92.0432 325.5 76.0008C377.519 62.205 385.119 34.5285 429 22.501C516.152 -1.38667 567.201 55.527 657.5 59.0007C755.471 62.7695 811.762 14.8618 907.5 35.9998C967.112 49.1615 986.469 97.5588 1051 98.0008C1116.82 98.4516 1144.84 48.0818 1210.5 43.5007C1259.57 40.0774 1335.5 59.0008 1335.5 59.0008" stroke="#37AFC8" stroke-width="2" stroke-linecap="round" stroke-dasharray="1 8"/>
<circle cx="221.5" cy="94" r="9" fill="#78C6D7"/>
<circle cx="221.5" cy="94" r="4" fill="#4FABBE"/>
<circle cx="47" cy="48.5" r="6.5" fill="#78C6D7"/>
<circle cx="47.0002" cy="48.5002" r="2.88889" fill="#4FABBE"/>
<circle cx="447.5" cy="17" r="14" fill="#78C6D7"/>
<circle cx="447.5" cy="16.9996" r="6.22222" fill="#4FABBE"/>
<circle cx="1287.5" cy="48" r="9" fill="#78C6D7"/>
<circle cx="1287.5" cy="48" r="4" fill="#4FABBE"/>
<circle cx="1126.5" cy="74" r="9" fill="#78C6D7"/>
<circle cx="1126.5" cy="74" r="4" fill="#4FABBE"/>
<circle cx="932" cy="42.5" r="22.5" fill="#78C6D7"/>
<circle cx="932" cy="42.5" r="10" fill="#4FABBE"/>
<path d="M1337.5 568.5C1337.5 568.5 1237.57 600.389 1168 590.999C1105.98 582.629 1075.49 557.957 1015 573.999C962.981 587.795 955.381 615.471 911.5 627.499C824.348 651.387 773.299 594.473 683 590.999C585.029 587.231 528.738 635.138 433 614C373.388 600.839 354.031 552.441 289.5 551.999C223.677 551.548 195.665 601.918 130 606.499C80.9299 609.923 5 590.999 5 590.999" stroke="#37AFC8" stroke-width="2" stroke-linecap="round" stroke-dasharray="1 8"/>
<circle cx="1124" cy="581" r="9" transform="rotate(180 1124 581)" fill="#78C6D7"/>
<circle cx="1124" cy="581" r="4" transform="rotate(180 1124 581)" fill="#4FABBE"/>
<circle cx="1301.5" cy="578.5" r="6.5" transform="rotate(180 1301.5 578.5)" fill="#78C6D7"/>
<circle cx="1301.5" cy="578.5" r="2.88889" transform="rotate(180 1301.5 578.5)" fill="#4FABBE"/>
<circle cx="893" cy="633" r="14" transform="rotate(180 893 633)" fill="#78C6D7"/>
<circle cx="893" cy="633" r="6.22222" transform="rotate(180 893 633)" fill="#4FABBE"/>
<circle cx="53" cy="602" r="9" transform="rotate(180 53 602)" fill="#78C6D7"/>
<circle cx="53" cy="602" r="4" transform="rotate(180 53 602)" fill="#4FABBE"/>
<circle cx="218" cy="573" r="17" transform="rotate(180 218 573)" fill="#78C6D7"/>
<circle cx="218" cy="573" r="7.55556" transform="rotate(180 218 573)" fill="#4FABBE"/>
<circle cx="404.5" cy="605.5" r="10.5" transform="rotate(180 404.5 605.5)" fill="#78C6D7"/>
<circle cx="404.5" cy="605.5" r="4.66667" transform="rotate(180 404.5 605.5)" fill="#4FABBE"/>
</svg>
