<svg width="973" height="719" viewBox="0 0 973 719" fill="none" xmlns="http://www.w3.org/2000/svg">
<path d="M973 -26H-23.0963L-41 719C-41 719 227.148 676.094 319.32 646.106C411.491 616.117 421.199 577.015 533.516 569.495C645.832 561.975 752.284 521.962 693.045 464.684C660.015 432.748 629.707 376.081 727.336 329.793C787.227 301.397 798.901 271.878 798.901 209.002C799.089 151.017 819.959 131.921 910.72 91.501C970.346 64.9467 960.102 32.0468 973 -26Z" fill="#C8E7ED"/>
<ellipse cx="797.053" cy="239.027" rx="5.05255" ry="5.02719" fill="#94D2FD" fill-opacity="0.4"/>
<ellipse cx="797.052" cy="239.027" rx="2.24558" ry="2.23431" fill="#18B6D8"/>
<ellipse cx="891.053" cy="100.027" rx="5.05255" ry="5.02719" fill="#94D2FD" fill-opacity="0.4"/>
<ellipse cx="891.052" cy="100.027" rx="2.24558" ry="2.23431" fill="#18B6D8"/>
<ellipse cx="680.496" cy="361.464" rx="6.49614" ry="6.46353" fill="#94D2FD" fill-opacity="0.4"/>
<ellipse cx="680.496" cy="361.463" rx="2.88717" ry="2.87268" fill="#18B6D8"/>
<ellipse cx="635.94" cy="551.9" rx="7.93972" ry="7.89987" fill="#94D2FD" fill-opacity="0.4"/>
<ellipse cx="635.94" cy="551.9" rx="3.52877" ry="3.51105" fill="#18B6D8"/>
<ellipse cx="383.827" cy="617.773" rx="10.8269" ry="10.7725" fill="#94D2FD" fill-opacity="0.4"/>
<ellipse cx="383.828" cy="617.772" rx="4.81195" ry="4.7878" fill="#18B6D8"/>
<path d="M914 -8H-12.0097L-19 719C-19 719 232.651 665.321 306.313 617.769C379.976 570.216 401.025 553.441 505.438 546.44C609.852 539.438 708.814 502.184 653.743 448.855C623.037 419.12 594.861 366.36 685.621 323.263C741.298 296.826 752.15 269.341 752.15 210.8C752.326 156.813 771.727 139.034 856.102 101.4C911.533 76.6765 902.01 46.0449 914 -8Z" fill="#04778F"/>
<path d="M914 -8H-10V719C-10 719 263.412 630.042 292.584 577.366C321.756 524.69 382.612 517.192 481.863 510.642C581.114 504.093 675.327 469.381 622.835 419.358C593.647 391.543 566.865 342.19 653.137 301.876C708.118 278.045 716.376 228.582 716.376 196.673C716.543 146.172 732.197 122.127 815.188 94.3367C902.471 65.1098 902.603 42.5555 914 -8Z" fill="url(#paint0_linear)"/>
<circle cx="99" cy="43" r="304" stroke="#FCFCFC" stroke-opacity="0.2" stroke-width="2" stroke-linecap="round" stroke-dasharray="1 5"/>
<path d="M302.157 41.4512C302.157 152.972 210.235 245.382 94.3536 245.382C-21.5275 245.382 -113.45 152.972 -113.45 41.4512C-113.45 -70.0699 -21.5275 -162.48 94.3536 -162.48C210.235 -162.48 302.157 -70.0699 302.157 41.4512Z" stroke="white" stroke-opacity="0.1" stroke-width="180"/>
<circle cx="90.4796" cy="39.128" r="135.703" stroke="#FCFCFC" stroke-opacity="0.2" stroke-width="2" stroke-linecap="round"/>
<defs>
<linearGradient id="paint0_linear" x1="543.824" y1="304.119" x2="168.441" y2="-119.866" gradientUnits="userSpaceOnUse">
<stop stop-color="#0C91AD"/>
<stop offset="1" stop-color="#67D0E6"/>
</linearGradient>
</defs>
</svg>
