<svg id="Capa_1" enable-background="new 0 0 512 512" height="512" viewBox="0 0 512 512" width="512" xmlns="http://www.w3.org/2000/svg"><path d="m455.762 344.633-107.143-50.266c10.639-12.983 18.482-28.073 22.921-44.267 20.41-4.58 35.71-22.84 35.71-44.61 0-20.23-13.21-37.44-31.46-43.44v-42.26c0-66.05-53.74-119.79-119.79-119.79s-119.79 53.74-119.79 119.79v42.26c-18.25 6-31.46 23.21-31.46 43.44 0 21.77 15.3 40.03 35.71 44.61 4.438 16.194 12.282 31.285 22.921 44.267l-107.143 50.266c-34.163 16.028-56.238 50.767-56.238 88.503v78.864h512v-78.864c0-37.736-22.075-72.475-56.238-88.503zm-289.552-224.843c0-49.51 40.28-89.79 89.79-89.79s89.79 40.28 89.79 89.79v27.15c-36.23-13.62-51.11-38.3-51.77-39.43l-10.88-19.71-13.98 17.9c-.31.4-29.79 37.18-102.95 53.4zm-31.46 85.7c0-8.67 7.05-15.72 15.72-15.72h15.74c59.55-11.93 95.64-36.69 113.31-52.17 11.77 12.99 33.04 31.06 66.27 40.96v11.21h15.74c8.67 0 15.72 7.05 15.72 15.72s-7.05 15.72-15.72 15.72h-14.91l-2.13 12.47c-7.37 43.2-44.59 74.55-88.49 74.55s-81.12-31.35-88.49-74.55l-2.13-12.47h-14.91c-8.67 0-15.72-7.05-15.72-15.72zm158.949 126.644-37.699 57.881-37.698-57.881c12.071 4.001 24.794 6.096 37.698 6.096s25.627-2.094 37.699-6.096zm-159.366 149.866c-11.028 0-20-8.972-20-20s8.972-20 20-20 20 8.972 20 20-8.972 20-20 20zm-104.333-48.864c0-26.156 15.3-50.234 38.98-61.343l50.354-23.623v66.132c-20.264 6.386-35 25.352-35 47.698 0 7.109 1.501 13.871 4.187 20h-58.521zm150.146 48.864c2.686-6.129 4.187-12.891 4.187-20 0-22.346-14.736-41.312-35-47.698v-80.206l26.382-12.377 80.285 123.265 80.285-123.266 24.381 11.438v60.338c-24.095 5.731-42.075 27.42-42.075 53.244v35.262zm168.445 0v-35.262c0-13.641 11.097-24.738 24.738-24.738h4.674c13.641 0 24.739 11.098 24.739 24.738v35.262zm133.409 0h-49.258v-35.262c0-25.823-17.98-47.513-42.076-53.244v-46.264l52.354 24.561c23.68 11.111 38.98 35.189 38.98 61.345z"/></svg>