<svg width="1070" height="124" viewBox="0 0 1070 124" fill="none" xmlns="http://www.w3.org/2000/svg">
<rect width="1070" height="124" rx="15" fill="white"/>
<mask id="mask0" mask-type="alpha" maskUnits="userSpaceOnUse" x="0" y="0" width="1070" height="124">
<rect width="1070" height="124" rx="15" fill="white"/>
</mask>
<g mask="url(#mask0)">
<path d="M906.93 140.5C906.93 154.837 895.113 166.5 880.486 166.5C865.859 166.5 854.042 154.837 854.042 140.5C854.042 126.163 865.859 114.5 880.486 114.5C895.113 114.5 906.93 126.163 906.93 140.5Z" stroke="#0C91AD" stroke-width="3"/>
<path d="M934.365 81.5C934.365 91.4186 926.188 99.5 916.05 99.5C905.912 99.5 897.735 91.4186 897.735 81.5C897.735 71.5814 905.912 63.5 916.05 63.5C926.188 63.5 934.365 71.5814 934.365 81.5Z" stroke="#0C91AD" stroke-width="3"/>
<path d="M869.333 44.5C869.333 54.4186 861.156 62.5 851.018 62.5C840.88 62.5 832.703 54.4186 832.703 44.5C832.703 34.5814 840.88 26.5 851.018 26.5C861.156 26.5 869.333 34.5814 869.333 44.5Z" stroke="#0C91AD" stroke-width="3"/>
<path d="M916.075 33C916.075 38.2242 911.765 42.5 906.397 42.5C901.03 42.5 896.72 38.2242 896.72 33C896.72 27.7758 901.03 23.5 906.397 23.5C911.765 23.5 916.075 27.7758 916.075 33Z" stroke="#0C91AD" stroke-width="3"/>
<path d="M837.832 129C837.832 134.224 833.522 138.5 828.154 138.5C822.787 138.5 818.477 134.224 818.477 129C818.477 123.776 822.787 119.5 828.154 119.5C833.522 119.5 837.832 123.776 837.832 129Z" stroke="#0C91AD" stroke-width="3"/>
<path d="M871.365 90C871.365 96.3287 866.145 101.5 859.655 101.5C853.165 101.5 847.945 96.3287 847.945 90C847.945 83.6713 853.165 78.5 859.655 78.5C866.145 78.5 871.365 83.6713 871.365 90Z" stroke="#0C91AD" stroke-width="3"/>
<path d="M810.397 61.5C810.397 66.448 806.314 70.5 801.227 70.5C796.14 70.5 792.058 66.448 792.058 61.5C792.058 56.552 796.14 52.5 801.227 52.5C806.314 52.5 810.397 56.552 810.397 61.5Z" stroke="#0C91AD" stroke-width="3"/>
<path d="M999.398 148.5C999.398 170.569 981.212 188.5 958.728 188.5C936.244 188.5 918.059 170.569 918.059 148.5C918.059 126.431 936.244 108.5 958.728 108.5C981.212 108.5 999.398 126.431 999.398 148.5Z" stroke="#0C91AD" stroke-width="3"/>
<path d="M1124.38 12.5C1124.38 34.5688 1106.2 52.5 1083.71 52.5C1061.23 52.5 1043.04 34.5688 1043.04 12.5C1043.04 -9.56884 1061.23 -27.5 1083.71 -27.5C1106.2 -27.5 1124.38 -9.56884 1124.38 12.5Z" stroke="#0C91AD" stroke-width="3"/>
<path d="M1026.83 30.5C1026.83 52.5688 1008.65 70.5 986.164 70.5C963.68 70.5 945.494 52.5688 945.494 30.5C945.494 8.43116 963.68 -9.5 986.164 -9.5C1008.65 -9.5 1026.83 8.43116 1026.83 30.5Z" stroke="#0C91AD" stroke-width="3"/>
<path d="M929.285 -31.5C929.285 -9.43116 911.099 8.5 888.615 8.5C866.131 8.5 847.945 -9.43116 847.945 -31.5C847.945 -53.5688 866.131 -71.5 888.615 -71.5C911.099 -71.5 929.285 -53.5688 929.285 -31.5Z" stroke="#0C91AD" stroke-width="3"/>
<path d="M837.832 -20.5C837.832 1.56884 819.646 19.5 797.162 19.5C774.678 19.5 756.492 1.56884 756.492 -20.5C756.492 -42.5688 774.678 -60.5 797.162 -60.5C819.646 -60.5 837.832 -42.5688 837.832 -20.5Z" stroke="#0C91AD" stroke-width="3"/>
<path d="M1101.01 113.5C1101.01 135.569 1082.83 153.5 1060.34 153.5C1037.86 153.5 1019.67 135.569 1019.67 113.5C1019.67 91.4312 1037.86 73.5 1060.34 73.5C1082.83 73.5 1101.01 91.4312 1101.01 113.5Z" stroke="#0C91AD" stroke-width="3"/>
<path d="M798.203 118.5C798.203 140.569 780.017 158.5 757.533 158.5C735.049 158.5 716.863 140.569 716.863 118.5C716.863 96.4312 735.049 78.5 757.533 78.5C780.017 78.5 798.203 96.4312 798.203 118.5Z" stroke="#0C91AD" stroke-width="3"/>
</g>
</svg>
