<svg width="1071" height="124" viewBox="0 0 1071 124" fill="none" xmlns="http://www.w3.org/2000/svg">
<rect width="1071" height="124" rx="15" fill="white"/>
<circle cx="1041.08" cy="16.0167" r="13.45" stroke="#37AFC8"/>
<circle cx="1041.6" cy="41.3333" r="7.76667" stroke="#37AFC8"/>
<circle cx="951.7" cy="61.9999" r="7.76667" stroke="#37AFC8"/>
<circle cx="1043.15" cy="98.6833" r="17.5833" stroke="#37AFC8"/>
<circle cx="1025.58" cy="35.65" r="5.18333" fill="#A2D5DF" fill-opacity="0.79" stroke="#37AFC8"/>
<circle cx="952.217" cy="44.9501" r="5.18333" fill="#A2D5DF" fill-opacity="0.79" stroke="#37AFC8"/>
<circle cx="1061.75" cy="19.1167" r="5.18333" fill="#A2D5DF" fill-opacity="0.79" stroke="#37AFC8"/>
<circle cx="803.417" cy="114.183" r="5.18333" fill="#A2D5DF" fill-opacity="0.79" stroke="#37AFC8"/>
<circle cx="936.717" cy="83.1833" r="5.18333" fill="#A2D5DF" fill-opacity="0.79" stroke="#37AFC8"/>
<circle cx="884.016" cy="71.8166" r="5.18333" fill="#A2D5DF" fill-opacity="0.79" stroke="#37AFC8"/>
<circle cx="834.417" cy="116.25" r="5.18333" fill="#A2D5DF" fill-opacity="0.79" stroke="#37AFC8"/>
<circle cx="1006.47" cy="26.8667" r="9.83333" stroke="#37AFC8"/>
<circle cx="918.634" cy="87.8333" r="6.73333" stroke="#37AFC8"/>
<circle cx="886.6" cy="113.667" r="9.83333" stroke="#37AFC8"/>
<circle cx="1016.8" cy="8.26667" r="7.76667" fill="#45C5E0" stroke="#37AFC8"/>
<circle cx="1053.48" cy="65.6166" r="12.4167" fill="#45C5E0" stroke="#37AFC8"/>
<circle cx="988.383" cy="65.6166" r="12.4167" fill="#45C5E0" stroke="#37AFC8"/>
<circle cx="923.8" cy="116.767" r="6.73333" fill="#C8E7ED" stroke="#37AFC8"/>
<circle cx="970.816" cy="47.0167" r="7.25" fill="#C8E7ED" stroke="#37AFC8"/>
<circle cx="974.95" cy="111.083" r="12.4167" fill="#C8E7ED" stroke="#37AFC8"/>
<circle cx="970.3" cy="85.7667" r="7.76667" stroke="#37AFC8"/>
<circle cx="950.15" cy="80.0834" r="5.18333" stroke="#37AFC8"/>
<circle cx="945.5" cy="103.333" r="7.76667" fill="#45C5E0" stroke="#37AFC8"/>
<circle cx="924.834" cy="73.3666" r="4.66667" fill="#45C5E0" stroke="#37AFC8"/>
<circle cx="943.433" cy="13.4334" r="4.66667" fill="#45C5E0" stroke="#37AFC8"/>
<circle cx="865.933" cy="66.1333" r="4.66667" fill="#45C5E0" stroke="#37AFC8"/>
<circle cx="939.3" cy="117.8" r="3.63333" stroke="#37AFC8"/>
<circle cx="960.483" cy="98.6833" r="4.15" stroke="#37AFC8"/>
<circle cx="953.25" cy="117.283" r="6.21667" stroke="#37AFC8"/>
<circle cx="994.066" cy="44.4333" r="7.76667" fill="#C8E7ED" stroke="#37AFC8"/>
<circle cx="989.934" cy="89.9" r="7.76667" stroke="#37AFC8"/>
<circle cx="904.167" cy="102.3" r="7.76667" fill="#C8E7ED" stroke="#37AFC8"/>
<circle cx="1006.47" cy="115.733" r="7.76667" fill="#45C5E0" stroke="#37AFC8"/>
<circle cx="1011.12" cy="59.4167" r="4.15" stroke="#37AFC8"/>
<circle cx="921.216" cy="101.783" r="4.15" stroke="#37AFC8"/>
<circle cx="888.15" cy="96.6167" r="4.15" stroke="#37AFC8"/>
<circle cx="846.817" cy="95.5834" r="4.15" fill="#45C5E0" stroke="#37AFC8"/>
<circle cx="868.516" cy="99.7167" r="4.15" stroke="#37AFC8"/>
<circle cx="905.716" cy="70.7833" r="4.15" stroke="#37AFC8"/>
<circle cx="957.383" cy="19.1167" r="4.15" stroke="#37AFC8"/>
<circle cx="919.15" cy="42.8833" r="4.15" stroke="#37AFC8"/>
<circle cx="849.917" cy="76.9834" r="4.15" stroke="#37AFC8"/>
<circle cx="967.716" cy="61.4834" r="4.15" stroke="#37AFC8"/>
<circle cx="899.516" cy="41.85" r="4.15" stroke="#37AFC8"/>
<circle cx="931.55" cy="27.3833" r="4.15" fill="#45C5E0" stroke="#37AFC8"/>
<circle cx="933.617" cy="51.15" r="4.15" stroke="#37AFC8"/>
<circle cx="907.784" cy="118.317" r="4.15" stroke="#37AFC8"/>
<circle cx="999.75" cy="7.74998" r="4.15" fill="#C8E7ED" stroke="#37AFC8"/>
<circle r="3.63333" transform="matrix(1 0 0 -1 1054 31)" fill="#45C5E0" stroke="#37AFC8"/>
<circle r="3.63333" transform="matrix(1 0 0 -1 1023 115.733)" fill="#C8E7ED" stroke="#37AFC8"/>
<circle cx="979.084" cy="16.0167" r="13.45" stroke="#37AFC8"/>
<circle cx="1057.1" cy="45.4667" r="4.66667" fill="#C8E7ED" stroke="#37AFC8"/>
<circle cx="1063.3" cy="83.7" r="4.66667" fill="#C8E7ED" stroke="#37AFC8"/>
<circle cx="1059.17" cy="117.8" r="4.66667" fill="#C8E7ED" stroke="#37AFC8"/>
<circle cx="1016.8" cy="103.333" r="5.7" stroke="#37AFC8"/>
<circle cx="1001.3" cy="99.2" r="4.66667" stroke="#37AFC8"/>
<circle cx="980.117" cy="35.65" r="3.11667" stroke="#37AFC8"/>
<circle cx="944.983" cy="34.6167" r="3.11667" stroke="#37AFC8"/>
<circle cx="962.55" cy="73.8834" r="3.11667" fill="#C8E7ED" stroke="#37AFC8"/>
<circle cx="916.05" cy="56.3166" r="3.11667" fill="#C8E7ED" stroke="#37AFC8"/>
<circle cx="936.716" cy="68.7166" r="3.11667" fill="#C8E7ED" stroke="#37AFC8"/>
<circle cx="893.317" cy="56.3166" r="3.11667" fill="#C8E7ED" stroke="#37AFC8"/>
<circle cx="904.683" cy="87.3166" r="3.11667" fill="#C8E7ED" stroke="#37AFC8"/>
<circle cx="824.083" cy="103.85" r="3.11667" fill="#C8E7ED" stroke="#37AFC8"/>
<circle cx="868.517" cy="118.317" r="3.11667" fill="#C8E7ED" stroke="#37AFC8"/>
<circle cx="953.25" cy="90.4167" r="3.11667" fill="#C8E7ED" stroke="#37AFC8"/>
<circle cx="934.65" cy="93.5167" r="3.11667" stroke="#37AFC8"/>
<circle cx="931.55" cy="106.95" r="3.11667" stroke="#37AFC8"/>
<circle cx="865.416" cy="83.1833" r="3.11667" stroke="#37AFC8"/>
<circle cx="881.95" cy="87.3166" r="2.08333" stroke="#37AFC8"/>
<circle cx="832.35" cy="89.3834" r="2.08333" stroke="#37AFC8"/>
<circle cx="856.117" cy="117.283" r="2.08333" stroke="#37AFC8"/>
<circle cx="811.683" cy="93.5167" r="2.08333" fill="#45C5E0" stroke="#37AFC8"/>
<circle cx="849.916" cy="110.05" r="2.08333" stroke="#37AFC8"/>
<circle cx="818.916" cy="118.317" r="2.08333" stroke="#37AFC8"/>
<circle cx="777.583" cy="118.317" r="2.08333" stroke="#37AFC8"/>
<circle cx="992.517" cy="106.95" r="3.11667" stroke="#37AFC8"/>
<circle cx="958.933" cy="6.2" r="5.7" fill="#C8E7ED" stroke="#37AFC8"/>
<circle cx="1032.82" cy="74.9166" r="5.18333" fill="#A2D5DF" fill-opacity="0.79" stroke="#37AFC8"/>
<circle cx="1011.12" cy="45.9834" r="6.21667" stroke="#37AFC8"/>
<circle cx="962.55" cy="31.5167" r="6.21667" stroke="#37AFC8"/>
<circle cx="1029.2" cy="57.8666" r="8.8" stroke="#37AFC8"/>
<circle cx="1012.15" cy="81.1166" r="13.45" fill="#C8E7ED" stroke="#37AFC8"/>
</svg>
