<svg width="1070" height="124" viewBox="0 0 1070 124" fill="none" xmlns="http://www.w3.org/2000/svg">
<mask id="mask0" mask-type="alpha" maskUnits="userSpaceOnUse" x="0" y="0" width="1070" height="124">
<rect width="1070" height="124" rx="15" fill="white"/>
</mask>
<g mask="url(#mask0)">
<line y1="-0.5" x2="129.076" y2="-0.5" transform="matrix(0.547966 0.831964 -0.847197 0.538358 1045.62 -27.2926)" stroke="#1A8096"/>
<line y1="-0.5" x2="129.076" y2="-0.5" transform="matrix(0.547966 0.831964 -0.847197 0.538358 1036.4 -22.9015)" stroke="#1A8096"/>
<line y1="-0.5" x2="129.076" y2="-0.5" transform="matrix(0.547966 0.831964 -0.847197 0.538358 1029.7 -18.5105)" stroke="#1A8096"/>
<line y1="-0.5" x2="129.076" y2="-0.5" transform="matrix(0.547966 0.831964 -0.847197 0.538358 1021.74 -14.1195)" stroke="#1A8096"/>
<line y1="-0.5" x2="129.076" y2="-0.5" transform="matrix(0.547966 0.831964 -0.847197 0.538358 1016.3 -9.72852)" stroke="#1A8096"/>
<line y1="-0.5" x2="129.076" y2="-0.5" transform="matrix(0.547966 0.831964 -0.847197 0.538358 1008.34 -5.3374)" stroke="#1A8096"/>
<line y1="-0.5" x2="146.745" y2="-0.5" transform="matrix(0.310086 0.942961 -0.960146 0.304624 1047.33 -14.7271)" stroke="#1A8096"/>
<line y1="-0.5" x2="146.745" y2="-0.5" transform="matrix(0.310086 0.942961 -0.960146 0.304624 1036.84 -13.6217)" stroke="#1A8096"/>
<line y1="-0.5" x2="146.745" y2="-0.5" transform="matrix(0.310086 0.942961 -0.960146 0.304624 1028.95 -11.188)" stroke="#1A8096"/>
<line y1="-0.5" x2="146.745" y2="-0.5" transform="matrix(0.310086 0.942961 -0.960146 0.304624 1019.76 -9.41821)" stroke="#1A8096"/>
<line y1="-0.5" x2="146.745" y2="-0.5" transform="matrix(0.310086 0.942961 -0.960146 0.304624 1013.17 -6.31897)" stroke="#1A8096"/>
<line y1="-0.5" x2="146.745" y2="-0.5" transform="matrix(0.310086 0.942961 -0.960146 0.304624 1003.97 -4.54968)" stroke="#1A8096"/>
<line y1="-0.5" x2="146.725" y2="-0.5" transform="matrix(-0.245791 0.961206 -0.978464 -0.241397 1076.6 2.49951)" stroke="#1A8096"/>
<line y1="-0.5" x2="146.725" y2="-0.5" transform="matrix(-0.245791 0.961206 -0.978464 -0.241397 1067.11 -2.02271)" stroke="#1A8096"/>
<line y1="-0.5" x2="146.725" y2="-0.5" transform="matrix(-0.245791 0.961206 -0.978464 -0.241397 1059.1 -4.0675)" stroke="#1A8096"/>
<line y1="-0.5" x2="146.725" y2="-0.5" transform="matrix(-0.245791 0.961206 -0.978464 -0.241397 1050.35 -7.34973)" stroke="#1A8096"/>
<line y1="-0.5" x2="146.725" y2="-0.5" transform="matrix(-0.245791 0.961206 -0.978464 -0.241397 1043.09 -8.15283)" stroke="#1A8096"/>
<line y1="-0.5" x2="146.725" y2="-0.5" transform="matrix(-0.245791 0.961206 -0.978464 -0.241397 1034.34 -11.4376)" stroke="#1A8096"/>
<line y1="-0.5" x2="207.684" y2="-0.5" transform="matrix(-0.689444 0.723691 -0.736589 -0.677033 1100.86 20.8052)" stroke="#1A8096"/>
<line y1="-0.5" x2="207.684" y2="-0.5" transform="matrix(-0.689444 0.723691 -0.736589 -0.677033 1092.26 8.80823)" stroke="#1A8096"/>
<line y1="-0.5" x2="207.684" y2="-0.5" transform="matrix(-0.689444 0.723691 -0.736589 -0.677033 1083.78 0.878906)" stroke="#1A8096"/>
<line y1="-0.5" x2="207.684" y2="-0.5" transform="matrix(-0.689444 0.723691 -0.736589 -0.677033 1075.24 -9.08118)" stroke="#1A8096"/>
<line y1="-0.5" x2="207.684" y2="-0.5" transform="matrix(-0.689444 0.723691 -0.736589 -0.677033 1066.81 -14.9714)" stroke="#1A8096"/>
<line y1="-0.5" x2="207.684" y2="-0.5" transform="matrix(-0.689444 0.723691 -0.736589 -0.677033 1058.27 -24.937)" stroke="#1A8096"/>
<line y1="-0.5" x2="207.709" y2="-0.5" transform="matrix(-0.0105535 0.990952 -1.00886 -0.010366 1016.76 -35.3196)" stroke="#1A8096"/>
<line y1="-0.5" x2="207.709" y2="-0.5" transform="matrix(-0.0105535 0.990952 -1.00886 -0.010366 1002.18 -38.464)" stroke="#1A8096"/>
<line y1="-0.5" x2="207.709" y2="-0.5" transform="matrix(-0.0105535 0.990952 -1.00886 -0.010366 990.467 -38.6804)" stroke="#1A8096"/>
<line y1="-0.5" x2="207.709" y2="-0.5" transform="matrix(-0.0105535 0.990952 -1.00886 -0.010366 977.322 -40.3586)" stroke="#1A8096"/>
<line y1="-0.5" x2="207.709" y2="-0.5" transform="matrix(-0.0105535 0.990952 -1.00886 -0.010366 967.053 -39.1053)" stroke="#1A8096"/>
<line y1="-0.5" x2="207.709" y2="-0.5" transform="matrix(-0.0105535 0.990952 -1.00886 -0.010366 953.905 -40.7876)" stroke="#1A8096"/>
<line y1="-0.5" x2="207.734" y2="-0.5" transform="matrix(0.57719 0.812671 -0.827556 0.567074 910.953 -26.4677)" stroke="#1A8096"/>
<line y1="-0.5" x2="207.734" y2="-0.5" transform="matrix(0.57719 0.812671 -0.827556 0.567074 897.221 -20.7083)" stroke="#1A8096"/>
<line y1="-0.5" x2="207.734" y2="-0.5" transform="matrix(0.57719 0.812671 -0.827556 0.567074 887.561 -14.2061)" stroke="#1A8096"/>
<line y1="-0.5" x2="207.734" y2="-0.5" transform="matrix(0.57719 0.812671 -0.827556 0.567074 875.867 -8.07458)" stroke="#1A8096"/>
<line y1="-0.5" x2="207.734" y2="-0.5" transform="matrix(0.57719 0.812671 -0.827556 0.567074 868.248 -1.19702)" stroke="#1A8096"/>
<line y1="-0.5" x2="207.734" y2="-0.5" transform="matrix(0.57719 0.812671 -0.827556 0.567074 856.549 4.93323)" stroke="#1A8096"/>
<line y1="-0.5" x2="207.726" y2="-0.5" transform="matrix(0.326792 0.937498 -0.95459 0.321038 943.735 -23.3912)" stroke="#1A8096"/>
<line y1="-0.5" x2="207.726" y2="-0.5" transform="matrix(0.326792 0.937498 -0.95459 0.321038 928.918 -21.5731)" stroke="#1A8096"/>
<line y1="-0.5" x2="207.726" y2="-0.5" transform="matrix(0.326792 0.937498 -0.95459 0.321038 917.808 -17.9382)" stroke="#1A8096"/>
<line y1="-0.5" x2="207.726" y2="-0.5" transform="matrix(0.326792 0.937498 -0.95459 0.321038 904.847 -15.2102)" stroke="#1A8096"/>
<line y1="-0.5" x2="207.726" y2="-0.5" transform="matrix(0.326792 0.937498 -0.95459 0.321038 895.593 -10.6619)" stroke="#1A8096"/>
<line y1="-0.5" x2="207.726" y2="-0.5" transform="matrix(0.326792 0.937498 -0.95459 0.321038 882.626 -7.93652)" stroke="#1A8096"/>
<line y1="-0.5" x2="207.728" y2="-0.5" transform="matrix(0.376293 0.919405 -0.936186 0.369674 990.35 -27.3302)" stroke="#1A8096"/>
<line y1="-0.5" x2="207.728" y2="-0.5" transform="matrix(0.376293 0.919405 -0.936186 0.369674 975.65 -24.7528)" stroke="#1A8096"/>
<line y1="-0.5" x2="207.728" y2="-0.5" transform="matrix(0.376293 0.919405 -0.936186 0.369674 964.748 -20.5516)" stroke="#1A8096"/>
<line y1="-0.5" x2="207.728" y2="-0.5" transform="matrix(0.376293 0.919405 -0.936186 0.369674 951.949 -17.1611)" stroke="#1A8096"/>
<line y1="-0.5" x2="207.728" y2="-0.5" transform="matrix(0.376293 0.919405 -0.936186 0.369674 942.951 -12.1433)" stroke="#1A8096"/>
<line y1="-0.5" x2="207.728" y2="-0.5" transform="matrix(0.376293 0.919405 -0.936186 0.369674 930.148 -8.75513)" stroke="#1A8096"/>
<line y1="-0.5" x2="207.689" y2="-0.5" transform="matrix(-0.443896 0.890042 -0.90595 -0.435927 901.439 11.4016)" stroke="#1A8096"/>
<line y1="-0.5" x2="207.689" y2="-0.5" transform="matrix(-0.443896 0.890042 -0.90595 -0.435927 889.653 2.39587)" stroke="#1A8096"/>
<line y1="-0.5" x2="207.689" y2="-0.5" transform="matrix(-0.443896 0.890042 -0.90595 -0.435927 879.18 -2.75061)" stroke="#1A8096"/>
<line y1="-0.5" x2="207.689" y2="-0.5" transform="matrix(-0.443896 0.890042 -0.90595 -0.435927 868.052 -9.82373)" stroke="#1A8096"/>
<line y1="-0.5" x2="207.689" y2="-0.5" transform="matrix(-0.443896 0.890042 -0.90595 -0.435927 858.234 -13.0349)" stroke="#1A8096"/>
<line y1="-0.5" x2="207.689" y2="-0.5" transform="matrix(-0.443896 0.890042 -0.90595 -0.435927 847.104 -20.1133)" stroke="#1A8096"/>
<line y1="-0.5" x2="229.186" y2="-0.5" transform="matrix(0.712085 0.70187 -0.714738 0.699616 782.33 -43.5492)" stroke="#1A8096"/>
<line y1="-0.5" x2="229.186" y2="-0.5" transform="matrix(0.712085 0.70187 -0.714738 0.699616 768.531 -34.7075)" stroke="#1A8096"/>
<line y1="-0.5" x2="229.186" y2="-0.5" transform="matrix(0.712085 0.70187 -0.714738 0.699616 759.304 -25.825)" stroke="#1A8096"/>
<line y1="-0.5" x2="229.186" y2="-0.5" transform="matrix(0.712085 0.70187 -0.714738 0.699616 747.796 -16.9628)" stroke="#1A8096"/>
<line y1="-0.5" x2="229.186" y2="-0.5" transform="matrix(0.712085 0.70187 -0.714738 0.699616 740.859 -8.05701)" stroke="#1A8096"/>
<line y1="-0.5" x2="229.186" y2="-0.5" transform="matrix(0.712085 0.70187 -0.714738 0.699616 729.344 0.805176)" stroke="#1A8096"/>
<line y1="-0.5" x2="229.159" y2="-0.5" transform="matrix(0.0422604 0.990124 -1.00804 0.0415108 828.801 -31.771)" stroke="#1A8096"/>
<line y1="-0.5" x2="229.159" y2="-0.5" transform="matrix(0.0422604 0.990124 -1.00804 0.0415108 812.546 -34.4089)" stroke="#1A8096"/>
<line y1="-0.5" x2="229.159" y2="-0.5" transform="matrix(0.0422604 0.990124 -1.00804 0.0415108 799.634 -33.9829)" stroke="#1A8096"/>
<line y1="-0.5" x2="229.159" y2="-0.5" transform="matrix(0.0422604 0.990124 -1.00804 0.0415108 785.053 -35.0859)" stroke="#1A8096"/>
<line y1="-0.5" x2="229.159" y2="-0.5" transform="matrix(0.0422604 0.990124 -1.00804 0.0415108 773.813 -33.123)" stroke="#1A8096"/>
<line y1="-0.5" x2="229.159" y2="-0.5" transform="matrix(0.0422604 0.990124 -1.00804 0.0415108 759.229 -34.2305)" stroke="#1A8096"/>
<line y1="-0.5" x2="207.688" y2="-0.5" transform="matrix(-0.490715 0.866009 -0.881475 -0.481898 1008.84 -4.88159)" stroke="#1A8096"/>
<line y1="-0.5" x2="207.688" y2="-0.5" transform="matrix(-0.490715 0.866009 -0.881475 -0.481898 997.547 -14.4808)" stroke="#1A8096"/>
<line y1="-0.5" x2="207.688" y2="-0.5" transform="matrix(-0.490715 0.866009 -0.881475 -0.481898 987.363 -20.1587)" stroke="#1A8096"/>
<line y1="-0.5" x2="207.688" y2="-0.5" transform="matrix(-0.490715 0.866009 -0.881475 -0.481898 976.625 -27.7942)" stroke="#1A8096"/>
<line y1="-0.5" x2="207.688" y2="-0.5" transform="matrix(-0.490715 0.866009 -0.881475 -0.481898 966.992 -31.5056)" stroke="#1A8096"/>
<line y1="-0.5" x2="207.688" y2="-0.5" transform="matrix(-0.490715 0.866009 -0.881475 -0.481898 956.254 -39.1465)" stroke="#1A8096"/>
<line y1="-0.5" x2="207.706" y2="-0.5" transform="matrix(-0.0633399 0.989064 -1.00691 -0.062213 911.637 -25.6637)" stroke="#1A8096"/>
<line y1="-0.5" x2="207.706" y2="-0.5" transform="matrix(-0.0633399 0.989064 -1.00691 -0.062213 897.238 -29.5536)" stroke="#1A8096"/>
<line y1="-0.5" x2="207.706" y2="-0.5" transform="matrix(-0.0633399 0.989064 -1.00691 -0.062213 885.557 -30.3716)" stroke="#1A8096"/>
<line y1="-0.5" x2="207.706" y2="-0.5" transform="matrix(-0.0633399 0.989064 -1.00691 -0.062213 872.52 -32.7231)" stroke="#1A8096"/>
<line y1="-0.5" x2="207.706" y2="-0.5" transform="matrix(-0.0633399 0.989064 -1.00691 -0.062213 862.199 -31.9995)" stroke="#1A8096"/>
<line y1="-0.5" x2="207.706" y2="-0.5" transform="matrix(-0.0633399 0.989064 -1.00691 -0.062213 849.157 -34.3553)" stroke="#1A8096"/>
</g>
</svg>
