<svg width="1069" height="121" viewBox="0 0 1069 121" fill="none" xmlns="http://www.w3.org/2000/svg">
<rect width="1069" height="121" rx="15" fill="white"/>
<path d="M1018.26 1.28115C1019.31 0.517221 1020.73 0.517221 1021.78 1.28115L1038.48 13.4108C1039.53 14.1747 1039.97 15.5288 1039.57 16.7649L1033.19 36.391C1032.79 37.6271 1031.64 38.464 1030.34 38.464H1009.7C1008.4 38.464 1007.25 37.6271 1006.85 36.391L1000.47 16.7649C1000.07 15.5288 1000.51 14.1747 1001.56 13.4108L1018.26 1.28115Z" fill="#A2D5DF" fill-opacity="0.79"/>
<path d="M1036.79 23.0888C1037.85 22.3248 1039.27 22.3248 1040.32 23.0888L1048.72 29.1909C1049.77 29.9549 1050.21 31.309 1049.81 32.545L1046.6 42.4185C1046.2 43.6546 1045.05 44.4915 1043.75 44.4915H1033.37C1032.07 44.4915 1030.91 43.6546 1030.51 42.4185L1027.3 32.545C1026.9 31.309 1027.34 29.9549 1028.39 29.1909L1036.79 23.0888Z" fill="#A2D5DF" fill-opacity="0.79"/>
<path d="M946.921 59.3074C947.271 59.0528 947.746 59.0528 948.096 59.3074L956.254 65.2342C956.605 65.4889 956.751 65.9402 956.617 66.3522L953.501 75.942C953.368 76.354 952.984 76.633 952.55 76.633H942.467C942.034 76.633 941.65 76.354 941.516 75.942L938.4 66.3522C938.266 65.9402 938.413 65.4889 938.763 65.2342L946.921 59.3074Z" fill="#A2D5DF" fill-opacity="0.79"/>
<path d="M1051.6 4.78862C1051.95 4.53398 1052.42 4.53398 1052.77 4.78862L1060.93 10.7154C1061.28 10.9701 1061.43 11.4214 1061.3 11.8334L1058.18 21.4232C1058.05 21.8352 1057.66 22.1142 1057.23 22.1142H1047.14C1046.71 22.1142 1046.33 21.8352 1046.19 21.4232L1043.08 11.8334C1042.94 11.4214 1043.09 10.9701 1043.44 10.7154L1051.6 4.78862Z" fill="#A2D5DF" fill-opacity="0.79"/>
<path d="M1031.34 89.6017C1032.39 88.8378 1033.82 88.8378 1034.87 89.6017L1043.27 95.7039C1044.32 96.4678 1044.76 97.8219 1044.36 99.058L1041.15 108.931C1040.75 110.168 1039.6 111.004 1038.3 111.004H1027.91C1026.62 111.004 1025.46 110.168 1025.06 108.931L1021.85 99.058C1021.45 97.8219 1021.89 96.4678 1022.94 95.7039L1031.34 89.6017Z" fill="#A2D5DF" fill-opacity="0.79"/>
<path d="M915.76 5.64273C916.812 4.87879 918.236 4.87879 919.287 5.64273L927.686 11.7449C928.737 12.5088 929.177 13.8629 928.776 15.099L925.568 24.9725C925.166 26.2086 924.014 27.0454 922.715 27.0454H912.333C911.033 27.0454 909.881 26.2086 909.48 24.9725L906.272 15.099C905.87 13.8629 906.31 12.5088 907.361 11.7449L915.76 5.64273Z" fill="#A2D5DF" fill-opacity="0.79"/>
<path d="M1005.17 54.7096C1006.22 53.9457 1007.65 53.9457 1008.7 54.7096L1017.1 60.8118C1018.15 61.5757 1018.59 62.9298 1018.19 64.1659L1014.98 74.0394C1014.58 75.2755 1013.43 76.1123 1012.13 76.1123H1001.75C1000.45 76.1123 999.293 75.2755 998.892 74.0394L995.684 64.1659C995.282 62.9298 995.722 61.5757 996.774 60.8118L1005.17 54.7096Z" fill="#A2D5DF" fill-opacity="0.79"/>
<path d="M888.042 100.742C888.393 100.487 888.867 100.487 889.218 100.742L894.264 104.408C894.615 104.663 894.762 105.114 894.628 105.526L892.7 111.459C892.566 111.871 892.182 112.15 891.749 112.15H885.511C885.078 112.15 884.694 111.871 884.56 111.459L882.633 105.526C882.499 105.114 882.645 104.663 882.996 104.408L888.042 100.742Z" fill="#A2D5DF" fill-opacity="0.79"/>
<path d="M894.584 53.8555C894.935 53.6009 895.409 53.6009 895.76 53.8555L900.806 57.522C901.157 57.7767 901.304 58.228 901.17 58.64L899.242 64.5725C899.108 64.9846 898.724 65.2635 898.291 65.2635H892.053C891.62 65.2635 891.236 64.9846 891.102 64.5725L889.175 58.64C889.041 58.228 889.187 57.7767 889.538 57.522L894.584 53.8555Z" fill="#A2D5DF" fill-opacity="0.79"/>
<path d="M691.229 114.062C691.579 114.317 692.054 114.317 692.404 114.062L694.858 112.28C695.209 112.025 695.355 111.574 695.221 111.162L694.284 108.277C694.15 107.865 693.766 107.586 693.333 107.586H690.3C689.866 107.586 689.483 107.865 689.349 108.277L688.411 111.162C688.277 111.574 688.424 112.025 688.775 112.28L691.229 114.062Z" fill="#A2D5DF" fill-opacity="0.79"/>
<path d="M974.181 29.8672C974.532 29.6126 975.006 29.6126 975.357 29.8672L980.403 33.5337C980.754 33.7884 980.9 34.2397 980.766 34.6518L978.839 40.5843C978.705 40.9963 978.321 41.2753 977.888 41.2753H971.65C971.217 41.2753 970.833 40.9963 970.699 40.5843L968.771 34.6518C968.637 34.2397 968.784 33.7884 969.135 33.5337L974.181 29.8672Z" fill="#A2D5DF" fill-opacity="0.79"/>
<path d="M901.125 9.15007C901.476 8.89543 901.95 8.89543 902.301 9.15007L907.347 12.8166C907.698 13.0712 907.845 13.5226 907.711 13.9346L905.783 19.8671C905.649 20.2791 905.265 20.5581 904.832 20.5581H898.594C898.161 20.5581 897.777 20.2791 897.643 19.8671L895.716 13.9346C895.582 13.5226 895.728 13.0712 896.079 12.8166L901.125 9.15007Z" fill="#A2D5DF" fill-opacity="0.79"/>
<path d="M940.379 72.3919C940.73 72.1373 941.204 72.1373 941.555 72.3919L946.601 76.0584C946.952 76.313 947.098 76.7644 946.965 77.1764L945.037 83.1089C944.903 83.5209 944.519 83.7999 944.086 83.7999H937.848C937.415 83.7999 937.031 83.5209 936.897 83.1089L934.97 77.1764C934.836 76.7644 934.982 76.313 935.333 76.0584L940.379 72.3919Z" fill="#A2D5DF" fill-opacity="0.79"/>
<path d="M837.339 27.6866C837.69 27.4319 838.165 27.4319 838.515 27.6866L842.006 30.2229C842.356 30.4776 842.503 30.9289 842.369 31.3409L841.036 35.4448C840.902 35.8569 840.518 36.1358 840.085 36.1358H835.77C835.336 36.1358 834.952 35.8569 834.819 35.4448L833.485 31.3409C833.351 30.9289 833.498 30.4776 833.848 30.2229L837.339 27.6866Z" fill="#A2D5DF" fill-opacity="0.79"/>
<path d="M861.328 32.048C861.678 31.7934 862.153 31.7934 862.503 32.048L865.994 34.5844C866.345 34.839 866.491 35.2904 866.358 35.7024L865.024 39.8063C864.89 40.2183 864.506 40.4973 864.073 40.4973H859.758C859.325 40.4973 858.941 40.2183 858.807 39.8063L857.473 35.7024C857.34 35.2904 857.486 34.839 857.837 34.5844L861.328 32.048Z" fill="#A2D5DF" fill-opacity="0.79"/>
<path d="M847.153 83.2957C847.503 83.0411 847.978 83.0411 848.328 83.2957L851.819 85.832C852.17 86.0867 852.317 86.5381 852.183 86.9501L850.849 91.054C850.715 91.466 850.331 91.745 849.898 91.745H845.583C845.15 91.745 844.766 91.466 844.632 91.054L843.299 86.9501C843.165 86.5381 843.311 86.0867 843.662 85.832L847.153 83.2957Z" fill="#A2D5DF" fill-opacity="0.79"/>
<path d="M967.093 108.374C967.444 108.12 967.918 108.12 968.269 108.374L971.76 110.911C972.11 111.165 972.257 111.617 972.123 112.029L970.79 116.133C970.656 116.545 970.272 116.824 969.839 116.824H965.524C965.09 116.824 964.706 116.545 964.573 116.133L963.239 112.029C963.105 111.617 963.252 111.165 963.602 110.911L967.093 108.374Z" fill="#A2D5DF" fill-opacity="0.79"/>
<path d="M803.538 108.374C803.888 108.12 804.363 108.12 804.713 108.374L808.204 110.911C808.555 111.165 808.701 111.617 808.567 112.029L807.234 116.133C807.1 116.545 806.716 116.824 806.283 116.824H801.968C801.535 116.824 801.151 116.545 801.017 116.133L799.683 112.029C799.55 111.617 799.696 111.165 800.047 110.911L803.538 108.374Z" fill="#A2D5DF" fill-opacity="0.79"/>
<path d="M775.229 85.0493L778.34 87.3096L777.152 90.9668H773.306L772.118 87.3096L775.229 85.0493Z" fill="#A2D5DF" fill-opacity="0.79"/>
</svg>
