<svg width="1056" height="174" viewBox="0 0 1056 174" fill="none" xmlns="http://www.w3.org/2000/svg">
<rect width="1056" height="174" rx="15" fill="white"/>
<mask id="mask0" mask-type="alpha" maskUnits="userSpaceOnUse" x="0" y="0" width="1056" height="174">
<rect width="1055.79" height="174" rx="15" fill="white"/>
</mask>
<g mask="url(#mask0)">
<path d="M1107.21 54.1905C1107.21 67.5299 1103.48 80.1808 1096.43 89.484C1089.39 98.7752 1079.04 104.742 1065.73 104.742C1052.28 104.742 1034.77 103.312 1020.64 98.55C1006.49 93.7777 995.951 85.7482 995.951 72.6663C995.951 66.059 998.351 57.8877 1002.41 49.3208C1006.46 40.763 1012.15 31.8505 1018.68 23.7714C1025.21 15.6912 1032.57 8.45887 1039.96 3.25098C1047.37 -1.96369 1054.75 -5.11279 1061.34 -5.11279C1074.6 -5.11279 1086.06 2.99232 1094.23 14.5084C1102.39 26.0223 1107.21 40.8728 1107.21 54.1905Z" stroke="#1295B1"/>
<path d="M1098.79 54.2829C1098.79 65.7526 1095.58 76.6262 1089.51 84.6197C1083.45 92.6011 1074.54 97.726 1063.09 97.726C1051.49 97.726 1036.39 96.4954 1024.22 92.3997C1012.01 88.2938 1002.97 81.398 1002.97 70.1861C1002.97 64.5138 1005.03 57.4912 1008.53 50.1214C1012.02 42.7607 1016.93 35.0939 1022.55 28.1435C1028.18 21.1921 1034.53 14.9716 1040.9 10.4934C1047.28 6.00846 1053.64 3.30664 1059.3 3.30664C1070.71 3.30664 1080.57 10.2652 1087.61 20.1668C1094.64 30.0663 1098.79 42.8349 1098.79 54.2829Z" stroke="#1295B1"/>
<path d="M1090.37 55.0213C1090.37 64.4513 1087.72 73.386 1082.72 79.9507C1077.73 86.5033 1070.4 90.7098 1060.96 90.7098C1051.38 90.7098 1038.93 89.6965 1028.88 86.3279C1018.81 82.9488 1011.39 77.2897 1011.39 68.1181C1011.39 63.4658 1013.09 57.6965 1015.97 51.6326C1018.85 45.5779 1022.9 39.27 1027.55 33.5509C1032.19 27.8309 1037.43 22.7143 1042.68 19.032C1047.95 15.3431 1053.18 13.1292 1057.83 13.1292C1067.22 13.1292 1075.34 18.8372 1081.15 26.9775C1086.95 35.1158 1090.37 45.6132 1090.37 55.0213Z" stroke="#1295B1"/>
<path d="M1084.76 54.4675C1084.76 62.1976 1082.58 69.5165 1078.47 74.8904C1074.37 80.2524 1068.35 83.6938 1060.6 83.6938C1052.7 83.6938 1042.44 82.8616 1034.17 80.0988C1025.87 77.3253 1019.81 72.6966 1019.81 65.2256C1019.81 61.4235 1021.2 56.6986 1023.58 51.723C1025.95 46.7566 1029.28 41.581 1033.11 36.8881C1036.94 32.1943 1041.25 27.9975 1045.57 24.9785C1049.91 21.953 1054.21 20.1454 1058.02 20.1454C1065.72 20.1454 1072.4 24.8117 1077.17 31.4841C1081.94 38.1547 1084.76 46.7594 1084.76 54.4675Z" stroke="#1295B1"/>
<path d="M1076.34 56.6092C1076.34 62.299 1074.72 67.6787 1071.68 71.6237C1068.65 75.557 1064.21 78.0808 1058.47 78.0808C1052.6 78.0808 1044.97 77.466 1038.83 75.43C1032.66 73.3828 1028.22 69.9903 1028.22 64.5608C1028.22 61.7792 1029.25 58.3078 1031.02 54.6382C1032.78 50.9778 1035.26 47.1612 1038.1 43.6996C1040.95 40.2371 1044.15 37.1441 1047.36 34.9209C1050.57 32.6914 1053.75 31.3711 1056.55 31.3711C1062.23 31.3711 1067.17 34.7879 1070.71 39.6988C1074.25 44.6082 1076.34 50.9414 1076.34 56.6092Z" stroke="#1295B1"/>
<path d="M1072.13 58.2155C1072.13 62.3746 1070.93 66.2995 1068.7 69.1729C1066.47 72.0347 1063.2 73.871 1058.99 73.871C1054.63 73.871 1048.98 73.4192 1044.44 71.9282C1039.86 70.4253 1036.64 67.9592 1036.64 64.0623C1036.64 62.0466 1037.4 59.5155 1038.71 56.8254C1040.01 54.1447 1041.84 51.3472 1043.95 48.8091C1046.06 46.2701 1048.43 44.0048 1050.8 42.3784C1053.18 40.7458 1055.51 39.7904 1057.56 39.7904C1061.73 39.7904 1065.36 42.2713 1067.97 45.8607C1070.59 49.4493 1072.13 54.0785 1072.13 58.2155Z" stroke="#1295B1"/>
<path d="M1010.18 204.856C998.193 210.704 985.186 212.896 973.736 210.641C962.3 208.389 952.4 201.702 946.565 189.739C940.667 177.646 934.277 161.283 932.364 146.498C930.448 131.682 933.046 118.692 944.804 112.958C950.742 110.061 959.139 108.636 968.617 108.527C978.085 108.418 988.589 109.622 998.713 111.949C1008.84 114.276 1018.56 117.722 1026.49 122.085C1034.42 126.453 1040.49 131.711 1043.38 137.634C1049.19 149.552 1046.93 163.403 1040.16 175.792C1033.39 188.178 1022.15 199.018 1010.18 204.856Z" stroke="#1295B1"/>
<path d="M1006.41 197.33C996.099 202.358 984.916 204.235 975.072 202.286C965.243 200.341 956.732 194.581 951.71 184.284C946.624 173.856 941.114 159.752 939.458 147.014C937.799 134.245 940.031 123.091 950.108 118.176C955.206 115.69 962.423 114.467 970.58 114.38C978.727 114.292 987.767 115.337 996.481 117.349C1005.2 119.362 1013.57 122.337 1020.39 126.1C1027.22 129.869 1032.43 134.397 1034.91 139.488C1039.91 149.74 1037.98 161.656 1032.17 172.321C1026.35 182.983 1016.7 192.311 1006.41 197.33Z" stroke="#1295B1"/>
<path d="M1002.05 190.086C993.578 194.22 984.386 195.753 976.295 194.139C968.218 192.528 961.223 187.781 957.086 179.3C952.887 170.689 948.336 159.049 946.961 148.544C945.581 138.007 947.415 128.858 955.659 124.837C959.84 122.798 965.771 121.796 972.486 121.732C979.191 121.668 986.634 122.539 993.811 124.208C1000.99 125.877 1007.88 128.339 1013.5 131.448C1019.12 134.562 1023.4 138.295 1025.44 142.478C1029.56 150.914 1027.99 160.719 1023.22 169.503C1018.44 178.284 1010.51 185.962 1002.05 190.086Z" stroke="#1295B1"/>
<path d="M1000.09 184.799C993.144 188.187 985.609 189.434 978.979 188.099C972.363 186.767 966.63 182.863 963.232 175.895C959.771 168.799 956.02 159.211 954.879 150.568C953.733 141.891 955.234 134.412 961.949 131.136C965.367 129.47 970.225 128.653 975.739 128.608C981.243 128.564 987.355 129.29 993.251 130.672C999.148 132.054 1004.81 134.089 1009.42 136.653C1014.04 139.222 1017.55 142.292 1019.22 145.718C1022.59 152.64 1021.33 160.687 1017.42 167.903C1013.52 175.117 1007.02 181.42 1000.09 184.799Z" stroke="#1295B1"/>
<path d="M994.476 178.17C989.362 180.664 983.817 181.568 978.94 180.568C974.077 179.57 969.859 176.678 967.346 171.527C964.771 166.247 961.981 159.123 961.12 152.713C960.253 146.267 961.358 140.792 966.238 138.412C968.738 137.193 972.31 136.597 976.382 136.576C980.444 136.555 984.96 137.107 989.318 138.145C993.677 139.184 997.86 140.706 1001.27 142.615C1004.68 144.53 1007.26 146.805 1008.49 149.323C1010.98 154.43 1010.07 160.366 1007.21 165.7C1004.35 171.034 999.57 175.686 994.476 178.17Z" stroke="#1295B1"/>
<path d="M991.186 175.091C987.448 176.914 983.397 177.56 979.834 176.811C976.286 176.065 973.203 173.933 971.354 170.142C969.444 166.225 967.373 160.949 966.722 156.212C966.066 151.438 966.874 147.469 970.376 145.761C972.188 144.877 974.794 144.447 977.785 144.443C980.766 144.44 984.084 144.861 987.289 145.642C990.495 146.423 993.57 147.56 996.071 148.978C998.582 150.402 1000.46 152.08 1001.36 153.919C1003.19 157.665 1002.55 162.018 1000.47 165.941C998.39 169.864 994.905 173.277 991.186 175.091Z" stroke="#1295B1"/>
<path d="M851.312 186.912C838.397 183.572 827.084 176.792 819.841 167.641C812.608 158.502 809.423 146.987 812.755 134.101C816.124 121.075 821.892 104.482 830.04 91.9975C838.204 79.4867 848.616 71.2964 861.281 74.5718C867.678 76.2261 874.988 80.5954 882.267 86.668C889.537 92.7343 896.742 100.472 902.929 108.816C909.117 117.161 914.276 126.099 917.466 134.561C920.661 143.035 921.861 150.974 920.211 157.354C916.891 170.191 906.175 179.255 892.981 184.278C879.789 189.3 864.205 190.246 851.312 186.912Z" stroke="#1295B1"/>
<path d="M853.33 178.738C842.226 175.866 832.504 170.031 826.284 162.156C820.073 154.294 817.342 144.386 820.21 133.294C823.115 122.062 828.086 107.758 835.099 96.9974C842.13 86.2096 851.071 79.1783 861.926 81.9855C867.417 83.4057 873.699 87.1633 879.959 92.3942C886.21 97.6187 892.406 104.284 897.725 111.474C903.046 118.664 907.48 126.364 910.22 133.653C912.965 140.953 913.989 147.784 912.571 153.267C909.715 164.31 900.508 172.118 889.16 176.451C877.815 180.783 864.414 181.604 853.33 178.738Z" stroke="#1295B1"/>
<path d="M854.724 170.402C845.594 168.041 837.608 163.236 832.504 156.754C827.409 150.284 825.173 142.131 827.535 132.996C829.934 123.72 834.034 111.914 839.81 103.033C845.604 94.1247 852.941 88.358 861.82 90.6544C866.324 91.8192 871.484 94.9094 876.632 99.2221C881.773 103.528 886.867 109.024 891.24 114.954C895.615 120.885 899.258 127.234 901.507 133.244C903.76 139.264 904.593 144.885 903.428 149.39C901.078 158.477 893.518 164.914 884.184 168.494C874.852 172.072 863.832 172.757 854.724 170.402Z" stroke="#1295B1"/>
<path d="M856.665 165.106C849.181 163.171 842.642 159.226 838.467 153.904C834.302 148.595 832.478 141.903 834.419 134.398C836.396 126.754 839.771 117.028 844.516 109.714C849.279 102.371 855.279 97.6592 862.512 99.5298C866.193 100.482 870.418 103.016 874.64 106.563C878.854 110.104 883.031 114.625 886.616 119.505C890.202 124.386 893.186 129.611 895.026 134.553C896.87 139.507 897.544 144.12 896.589 147.811C894.661 155.267 888.471 160.562 880.816 163.514C873.163 166.465 864.127 167.036 856.665 165.106Z" stroke="#1295B1"/>
<path d="M856.699 156.419C851.191 154.994 846.387 152.08 843.328 148.152C840.279 144.235 838.949 139.297 840.384 133.748C841.855 128.061 844.36 120.832 847.868 115.398C851.395 109.934 855.791 106.488 861.047 107.847C863.74 108.544 866.843 110.41 869.954 113.039C873.056 115.662 876.132 119.014 878.771 122.634C881.411 126.254 883.604 130.129 884.953 133.792C886.306 137.465 886.789 140.87 886.087 143.582C884.665 149.083 880.12 153.008 874.48 155.206C868.84 157.403 862.186 157.838 856.699 156.419Z" stroke="#1295B1"/>
<path d="M856.198 151.941C852.172 150.9 848.671 148.76 846.449 145.876C844.236 143.005 843.276 139.381 844.332 135.298C845.423 131.079 847.275 125.722 849.856 121.698C852.457 117.641 855.649 115.148 859.422 116.123C861.374 116.628 863.635 117.993 865.912 119.933C868.181 121.867 870.43 124.341 872.36 127.017C874.291 129.692 875.89 132.554 876.871 135.257C877.856 137.971 878.197 140.469 877.684 142.449C876.641 146.484 873.329 149.381 869.2 151.013C865.071 152.645 860.204 152.977 856.198 151.941Z" stroke="#1295B1"/>
<path d="M808.083 66.7675C799.168 64.462 791.368 59.7837 786.378 53.4796C781.398 47.1874 779.207 39.2647 781.501 30.394C783.831 21.3825 787.819 9.91373 793.447 1.29106C799.091 -7.35802 806.243 -12.949 814.908 -10.7079C819.305 -9.57073 824.346 -6.56192 829.376 -2.36446C834.399 1.82658 839.379 7.17407 843.656 12.9421C847.933 18.7112 851.497 24.8861 853.7 30.7283C855.906 36.5814 856.725 42.042 855.595 46.4148C853.313 55.2368 845.944 61.4819 836.838 64.9492C827.733 68.4154 816.977 69.0676 808.083 66.7675Z" stroke="#1295B1"/>
<path d="M809.48 61.1081C801.818 59.1266 795.119 55.1026 790.838 49.6823C786.566 44.2739 784.688 37.4641 786.661 29.8351C788.671 22.0657 792.106 12.1816 796.949 4.75204C801.808 -2.70431 807.941 -7.49264 815.353 -5.57575C819.124 -4.60069 823.452 -2.0154 827.777 1.59931C832.095 5.20758 836.376 9.81295 840.052 14.7815C843.73 19.7511 846.791 25.0692 848.682 30.0991C850.577 35.14 851.275 39.8331 850.305 43.5852C848.344 51.1654 842.02 56.541 834.191 59.5302C826.365 62.5184 817.12 63.0841 809.48 61.1081Z" stroke="#1295B1"/>
<path d="M810.445 55.3376C804.151 53.7097 798.654 50.3995 795.145 45.9433C791.645 41.4991 790.11 35.9034 791.733 29.6288C793.392 23.2144 796.225 15.0589 800.211 8.93098C804.214 2.77557 809.237 -1.13679 815.281 0.426371C818.367 1.22459 821.919 3.34779 825.475 6.32676C829.023 9.29924 832.542 13.095 835.563 17.1914C838.586 21.2888 841.1 25.6721 842.651 29.816C844.206 33.9707 844.771 37.8268 843.976 40.9017C842.366 47.1276 837.181 51.5545 830.747 54.0221C824.315 56.4887 816.718 56.96 810.445 55.3376Z" stroke="#1295B1"/>
<path d="M811.79 51.6712C806.635 50.338 802.14 47.6226 799.274 43.9701C796.418 40.3294 795.169 35.7454 796.5 30.5992C797.867 25.3139 800.198 18.599 803.47 13.5556C806.76 8.48397 810.857 5.30216 815.761 6.57045C818.278 7.22128 821.182 8.95929 824.097 11.4085C827.004 13.8511 829.887 16.9721 832.363 20.3417C834.839 23.7122 836.897 27.3166 838.165 30.7221C839.436 34.1384 839.892 37.2969 839.242 39.8079C837.924 44.9054 833.688 48.5417 828.416 50.5744C823.146 52.6063 816.924 52.9988 811.79 51.6712Z" stroke="#1295B1"/>
<path d="M811.813 45.6568C808.026 44.6773 804.733 42.6761 802.64 39.9881C800.556 37.3119 799.648 33.9417 800.629 30.1491C801.645 26.2186 803.374 21.2321 805.79 17.4901C808.225 13.7183 811.211 11.4144 814.746 12.3287C816.579 12.8025 818.706 14.0781 820.852 15.8914C822.989 17.6982 825.11 20.0095 826.931 22.5068C828.752 25.0051 830.262 27.6747 831.19 30.1941C832.122 32.7242 832.446 35.0461 831.971 36.8805C831.003 40.6247 827.905 43.312 824.028 44.8227C820.153 46.3329 815.579 46.6307 811.813 45.6568Z" stroke="#1295B1"/>
<path d="M811.468 42.5573C808.707 41.8433 806.316 40.378 804.802 38.4138C803.297 36.4613 802.645 34.0011 803.363 31.2228C804.117 28.3083 805.394 24.6179 807.168 21.8517C808.963 19.0536 811.116 17.4103 813.623 18.0587C814.942 18.3997 816.486 19.328 818.055 20.6644C819.615 21.9941 821.164 23.698 822.494 25.541C823.824 27.385 824.924 29.3535 825.597 31.2085C826.274 33.0738 826.499 34.7686 826.156 36.0964C825.449 38.8265 823.205 40.8019 820.374 41.9208C817.544 43.0393 814.208 43.2658 811.468 42.5573Z" stroke="#1295B1"/>
<path d="M738.766 116.435C736.305 107.561 736.456 98.4666 739.421 90.9935C742.38 83.5346 748.146 77.6754 756.975 75.2268C765.945 72.7393 777.871 70.4588 788.152 71.0208C798.465 71.5847 806.882 74.9823 809.274 83.6075C810.488 87.984 810.402 93.8534 809.283 100.309C808.165 106.755 806.023 113.741 803.166 120.329C800.309 126.918 796.743 133.091 792.785 137.92C788.82 142.758 784.5 146.197 780.148 147.404C771.367 149.839 762.274 146.58 754.718 140.427C747.164 134.276 741.221 125.287 738.766 116.435Z" stroke="#1295B1"/>
<path d="M744.365 114.814C742.25 107.188 742.385 99.3742 744.939 92.9562C747.486 86.5523 752.445 81.5216 760.039 79.4158C767.772 77.2712 778.05 75.3047 786.905 75.7834C795.792 76.2638 803.005 79.181 805.051 86.5585C806.092 90.3112 806.017 95.3523 805.05 100.906C804.084 106.449 802.236 112.459 799.771 118.127C797.306 123.796 794.231 129.107 790.82 133.26C787.402 137.421 783.687 140.372 779.952 141.408C772.407 143.5 764.59 140.711 758.087 135.426C751.586 130.142 746.474 122.419 744.365 114.814Z" stroke="#1295B1"/>
<path d="M749.844 112.765C748.107 106.5 748.225 100.084 750.33 94.8174C752.429 89.5644 756.507 85.4374 762.752 83.7055C769.137 81.9349 777.617 80.3109 784.916 80.6987C792.249 81.0882 798.148 83.4815 799.817 89.4976C800.669 92.5697 800.606 96.7071 799.804 101.276C799.004 105.835 797.476 110.78 795.439 115.445C793.402 120.111 790.862 124.48 788.049 127.895C785.229 131.319 782.172 133.737 779.111 134.586C772.915 136.304 766.488 134.027 761.134 129.689C755.782 125.352 751.576 119.009 749.844 112.765Z" stroke="#1295B1"/>
<path d="M753.694 112.096C752.271 106.965 752.375 101.714 754.105 97.406C755.83 93.1122 759.175 89.7381 764.297 88.3176C769.558 86.8587 776.539 85.5202 782.543 85.8322C788.58 86.146 793.384 88.1029 794.738 92.9842C795.432 95.489 795.379 98.8732 794.716 102.622C794.054 106.361 792.793 110.418 791.112 114.247C789.432 118.077 787.339 121.661 785.024 124.462C782.701 127.271 780.193 129.245 777.694 129.938C772.62 131.345 767.353 129.495 762.957 125.946C758.562 122.398 755.111 117.205 753.694 112.096Z" stroke="#1295B1"/>
<path d="M758.915 109.111C757.869 105.341 757.956 101.488 759.237 98.3317C760.513 95.1888 762.978 92.7176 766.753 91.6708C770.665 90.5858 775.848 89.5899 780.296 89.8111C784.78 90.034 788.268 91.4681 789.244 94.9867C789.75 96.8105 789.709 99.2907 789.211 102.055C788.715 104.81 787.774 107.802 786.522 110.628C785.269 113.454 783.712 116.097 781.994 118.16C780.269 120.232 778.42 121.673 776.594 122.18C772.867 123.213 768.991 121.874 765.744 119.272C762.499 116.671 759.954 112.859 758.915 109.111Z" stroke="#1295B1"/>
<path d="M761.423 107.26C760.661 104.512 760.735 101.708 761.679 99.4147C762.617 97.1351 764.422 95.3403 767.187 94.5734C770.088 93.7689 773.923 93.0298 777.205 93.183C780.526 93.338 783.025 94.381 783.717 96.8764C784.081 98.1889 784.05 99.9907 783.676 102.017C783.305 104.033 782.604 106.227 781.673 108.3C780.741 110.374 779.586 112.311 778.316 113.821C777.039 115.34 775.684 116.382 774.363 116.749C771.645 117.502 768.812 116.546 766.428 114.654C764.044 112.762 762.18 109.986 761.423 107.26Z" stroke="#1295B1"/>
<path d="M718.985 43.2247C717.298 37.142 717.404 30.9162 719.43 25.8089C721.451 20.7157 725.384 16.7187 731.412 15.047C737.58 13.3364 745.772 11.7712 752.826 12.1569C759.911 12.5442 765.607 14.8736 767.226 20.7082C768.052 23.6894 767.997 27.7041 767.228 32.138C766.461 36.5621 764.99 41.3598 763.028 45.8851C761.065 50.4115 758.617 54.6485 755.903 57.959C753.182 61.2786 750.234 63.6185 747.282 64.4371C741.303 66.0954 735.094 63.8804 729.915 59.6632C724.738 55.4477 720.666 49.2865 718.985 43.2247Z" stroke="#1295B1"/>
<path d="M722.839 42.1089C721.39 36.885 721.485 31.5413 723.228 27.1604C724.966 22.7935 728.344 19.3668 733.521 17.931C738.838 16.4565 745.895 15.1075 751.967 15.4358C758.071 15.7657 762.938 17.7645 764.318 22.7399C765.026 25.2916 764.978 28.736 764.313 32.5488C763.651 36.3517 762.382 40.4774 760.69 44.3695C758.997 48.2627 756.887 51.9055 754.55 54.7506C752.206 57.6047 749.674 59.6082 747.147 60.3089C742.018 61.7312 736.688 59.8396 732.234 56.2199C727.782 52.6019 724.282 47.3118 722.839 42.1089Z" stroke="#1295B1"/>
<path d="M726.611 40.6992C725.422 36.4122 725.506 32.031 726.94 28.4424C728.368 24.8679 731.14 22.0632 735.389 20.8848C739.778 19.6677 745.597 18.5546 750.598 18.8202C755.632 19.0876 759.594 20.7259 760.714 24.7638C761.292 26.8469 761.252 29.669 760.702 32.8042C760.154 35.9295 759.106 39.322 757.708 42.5234C756.309 45.7259 754.568 48.7204 752.643 51.0578C750.71 53.4042 748.631 55.0409 746.568 55.6129C742.367 56.7779 737.994 55.2388 734.332 52.2709C730.671 49.3046 727.794 44.965 726.611 40.6992Z" stroke="#1295B1"/>
<path d="M729.258 40.2375C728.286 36.7315 728.36 33.1524 729.536 30.2242C730.707 27.3101 732.973 25.0235 736.45 24.0594C740.065 23.0569 744.852 22.1402 748.961 22.3538C753.104 22.5691 756.312 23.9072 757.215 27.1636C757.684 28.856 757.651 31.1595 757.196 33.73C756.743 36.2906 755.879 39.072 754.726 41.6978C753.573 44.3248 752.14 46.7791 750.557 48.6935C748.967 50.6167 747.266 51.9478 745.589 52.4127C742.161 53.3634 738.586 52.1177 735.583 49.6931C732.582 47.2699 730.225 43.7224 729.258 40.2375Z" stroke="#1295B1"/>
<path d="M732.854 38.1828C732.142 35.6143 732.203 32.9979 733.07 30.8624C733.932 28.7406 735.592 27.0752 738.142 26.3682C740.828 25.6232 744.378 24.9423 747.416 25.0934C750.49 25.2462 752.791 26.225 753.434 28.5426C753.773 29.7659 753.749 31.4468 753.408 33.3397C753.069 35.2225 752.425 37.2707 751.568 39.2058C750.709 41.142 749.645 42.9483 748.473 44.3551C747.295 45.7706 746.047 46.7354 744.834 47.0718C742.333 47.7654 739.715 46.8712 737.503 45.0986C735.293 43.3271 733.561 40.7302 732.854 38.1828Z" stroke="#1295B1"/>
<path d="M734.582 36.9086C734.065 35.0437 734.117 33.1497 734.751 31.6087C735.38 30.0813 736.586 28.881 738.441 28.3666C740.432 27.8146 743.053 27.3105 745.289 27.4148C747.563 27.521 749.182 28.2312 749.63 29.8436C749.871 30.7146 749.853 31.9282 749.598 33.3128C749.345 34.6872 748.867 36.1854 748.23 37.6025C747.593 39.0206 746.805 40.3409 745.942 41.3671C745.072 42.4019 744.164 43.0926 743.298 43.3329C741.491 43.834 739.591 43.2023 737.973 41.9188C736.357 40.6359 735.093 38.7522 734.582 36.9086Z" stroke="#1295B1"/>
<path d="M694.908 146.677C700.695 140.361 707.944 135.998 715.298 134.654C722.637 133.312 730.096 134.971 736.377 140.726C742.765 146.58 750.446 154.867 755.072 163.257C759.713 171.675 761.173 179.977 755.559 186.103C752.708 189.215 748.037 192.041 742.39 194.341C736.752 196.637 730.183 198.392 723.574 199.386C716.965 200.381 710.335 200.611 704.574 199.869C698.801 199.125 693.963 197.413 690.87 194.579C684.626 188.858 682.714 180.084 683.844 171.089C684.973 162.097 689.135 152.977 694.908 146.677Z" stroke="#1295B1"/>
<path d="M698.949 150.296C703.922 144.869 710.151 141.125 716.469 139.977C722.773 138.831 729.18 140.261 734.58 145.21C740.087 150.256 746.707 157.398 750.695 164.62C754.699 171.871 755.945 178.986 751.145 184.223C748.701 186.891 744.689 189.317 739.83 191.291C734.979 193.263 729.325 194.768 723.637 195.618C717.947 196.468 712.24 196.66 707.283 196.017C702.314 195.372 698.16 193.895 695.507 191.465C690.144 186.55 688.49 179.015 689.454 171.28C690.417 163.548 693.99 155.708 698.949 150.296Z" stroke="#1295B1"/>
<path d="M703.266 153.611C707.351 149.153 712.469 146.085 717.657 145.15C722.83 144.217 728.089 145.399 732.529 149.468C737.076 153.634 742.538 159.524 745.83 165.474C749.139 171.453 750.15 177.272 746.239 181.539C744.239 183.722 740.947 185.711 736.946 187.331C732.955 188.948 728.299 190.18 723.614 190.873C718.927 191.566 714.229 191.717 710.148 191.181C706.056 190.644 702.648 189.425 700.475 187.434C696.072 183.399 694.7 177.215 695.483 170.855C696.266 164.496 699.196 158.053 703.266 153.611Z" stroke="#1295B1"/>
<path d="M705.697 156.317C709.041 152.667 713.232 150.163 717.478 149.405C721.709 148.651 726.012 149.625 729.652 152.96C733.398 156.393 737.896 161.241 740.609 166.13C743.338 171.049 744.153 175.788 740.983 179.247C739.353 181.026 736.661 182.651 733.376 183.976C730.1 185.296 726.277 186.302 722.428 186.864C718.577 187.426 714.718 187.542 711.369 187.096C708.008 186.648 705.22 185.644 703.448 184.019C699.845 180.718 698.708 175.66 699.34 170.444C699.972 165.231 702.367 159.951 705.697 156.317Z" stroke="#1295B1"/>
<path d="M710.628 158.965C713.085 156.284 716.163 154.456 719.278 153.912C722.379 153.371 725.535 154.095 728.216 156.551C731.001 159.104 734.341 162.701 736.359 166.318C738.393 169.966 738.972 173.407 736.692 175.896C735.506 177.19 733.533 178.378 731.107 179.349C728.691 180.315 725.866 181.047 723.02 181.452C720.173 181.857 717.322 181.932 714.849 181.594C712.365 181.254 710.323 180.507 709.03 179.322C706.386 176.9 705.532 173.192 705.984 169.351C706.436 165.512 708.187 161.629 710.628 158.965Z" stroke="#1295B1"/>
<path d="M713.325 160.035C715.115 158.082 717.358 156.761 719.625 156.377C721.878 155.995 724.174 156.532 726.136 158.329C728.201 160.221 730.673 162.881 732.169 165.544C733.684 168.24 734.083 170.708 732.471 172.467C731.619 173.397 730.186 174.258 728.404 174.962C726.632 175.663 724.557 176.191 722.464 176.478C720.369 176.765 718.273 176.809 716.458 176.552C714.632 176.293 713.149 175.739 712.215 174.883C710.29 173.12 709.648 170.424 709.965 167.614C710.281 164.806 711.551 161.972 713.325 160.035Z" stroke="#1295B1"/>
<path d="M697.653 73.3892C703.244 73.6822 708.447 75.5236 712.168 78.6612C715.877 81.789 718.127 86.2132 717.837 91.7444C717.54 97.4208 716.55 104.757 714.24 110.583C711.918 116.438 708.364 120.549 703.03 120.269C700.297 120.126 696.939 118.952 693.423 117.056C689.917 115.164 686.293 112.576 683.036 109.649C679.779 106.722 676.903 103.469 674.882 100.255C672.855 97.0308 671.721 93.8987 671.863 91.1976C672.15 85.7166 675.751 81.1242 680.755 77.9555C685.757 74.7883 692.084 73.0974 697.653 73.3892Z" stroke="#1295B1"/>
<path d="M697.508 76.9506C702.308 77.2021 706.771 78.7857 709.959 81.4799C713.136 84.1643 715.063 87.9597 714.814 92.7077C714.557 97.6005 713.705 103.92 711.72 108.935C709.723 113.979 706.682 117.485 702.139 117.246C699.802 117.124 696.922 116.117 693.9 114.484C690.887 112.856 687.772 110.627 684.973 108.107C682.173 105.585 679.702 102.785 677.967 100.019C676.226 97.2441 675.259 94.5571 675.38 92.2475C675.626 87.5498 678.707 83.6059 683.003 80.8797C687.297 78.1549 692.729 76.7001 697.508 76.9506Z" stroke="#1295B1"/>
<path d="M697.633 80.525C701.57 80.7313 705.226 82.0336 707.834 84.244C710.43 86.4446 712.004 89.5541 711.8 93.4479C711.588 97.4859 710.886 102.695 709.256 106.826C707.613 110.987 705.13 113.831 701.451 113.638C699.545 113.538 697.187 112.714 694.704 111.368C692.23 110.027 689.671 108.191 687.37 106.113C685.069 104.035 683.041 101.728 681.617 99.4519C680.188 97.1663 679.402 94.9649 679.501 93.0822C679.702 89.2387 682.216 86.0024 685.74 83.759C689.262 81.5169 693.718 80.3198 697.633 80.525Z" stroke="#1295B1"/>
<path d="M697.271 82.8861C700.49 83.0547 703.472 84.1225 705.596 85.9296C707.709 87.7269 708.989 90.265 708.822 93.4471C708.648 96.7728 708.071 101.058 706.736 104.451C705.388 107.876 703.371 110.169 700.411 110.014C698.865 109.933 696.942 109.26 694.908 108.154C692.883 107.053 690.787 105.543 688.902 103.835C687.017 102.125 685.357 100.229 684.193 98.3616C683.024 96.4841 682.388 94.6872 682.469 93.1602C682.633 90.0282 684.675 87.3815 687.555 85.5406C690.433 83.7008 694.075 82.7186 697.271 82.8861Z" stroke="#1295B1"/>
<path d="M697.993 86.4931C700.348 86.6166 702.522 87.4027 704.066 88.7256C705.598 90.0388 706.525 91.8911 706.403 94.2199C706.274 96.691 705.847 99.8667 704.867 102.376C703.873 104.918 702.414 106.548 700.319 106.438C699.205 106.38 697.804 105.89 696.308 105.071C694.822 104.257 693.282 103.14 691.896 101.874C690.509 100.608 689.291 99.2058 688.44 97.8277C687.582 96.4399 687.127 95.1282 687.185 94.0276C687.304 91.7488 688.781 89.8096 690.888 88.4519C692.995 87.095 695.66 86.3709 697.993 86.4931Z" stroke="#1295B1"/>
<path d="M698.578 88.3096C700.285 88.3991 701.853 88.9737 702.962 89.9331C704.059 90.8828 704.722 92.221 704.634 93.9107C704.538 95.7409 704.224 98.0849 703.509 99.9313C702.78 101.813 701.739 102.944 700.294 102.868C699.504 102.827 698.495 102.474 697.404 101.871C696.322 101.272 695.198 100.449 694.186 99.5163C693.174 98.5823 692.288 97.5502 691.669 96.5393C691.046 95.519 690.726 94.5708 690.767 93.7893C690.853 92.1493 691.906 90.7408 693.434 89.7459C694.961 88.7516 696.893 88.2213 698.578 88.3096Z" stroke="#1295B1"/>
<path d="M965.859 82.1106C954.755 91.2638 941.663 96.8401 929.08 97.3587C916.512 97.8768 904.436 93.3529 895.299 82.269C886.07 71.0729 875.248 55.5212 869.519 40.4957C863.779 25.4408 863.226 11.1439 874.131 2.15447C879.634 -2.38241 888.085 -5.99196 897.998 -8.49288C907.901 -10.9914 919.22 -12.3726 930.423 -12.4812C941.627 -12.5899 952.697 -11.4255 962.105 -8.84424C971.525 -6.2599 979.22 -2.27197 983.747 3.22015C992.852 14.2652 993.965 29.372 989.983 44.0725C986.002 58.7704 976.946 72.9713 965.859 82.1106Z" stroke="#1295B1"/>
<path d="M960.009 75.1694C950.46 83.0403 939.2 87.8272 928.379 88.2627C917.573 88.6976 907.187 84.7967 899.321 75.2543C891.363 65.6001 882.032 52.1951 877.088 39.2513C872.133 26.2776 871.658 13.9981 881.007 6.29123C885.733 2.39558 892.998 -0.704603 901.531 -2.85027C910.054 -4.99349 919.798 -6.1736 929.444 -6.25761C939.091 -6.34163 948.622 -5.32913 956.721 -3.09868C964.832 -0.86513 971.449 2.5731 975.341 7.29451C983.175 16.798 984.149 29.7923 980.735 42.4448C977.321 55.0946 969.54 67.3123 960.009 75.1694Z" stroke="#1295B1"/>
<path d="M953.616 68.6706C945.765 75.1425 936.505 79.0684 927.605 79.4133C918.721 79.7575 910.179 76.5363 903.699 68.6755C897.127 60.7032 889.424 49.64 885.335 38.9671C881.235 28.2635 880.847 18.1851 888.499 11.8776C892.376 8.68149 898.348 6.13696 905.375 4.37883C912.393 2.62315 920.419 1.66244 928.366 1.60528C936.315 1.54811 944.166 2.39489 950.838 4.24264C957.521 6.09348 962.962 8.93202 966.161 12.8128C972.609 20.6347 973.431 31.3247 970.636 41.7427C967.842 52.1584 961.45 62.2125 953.616 68.6706Z" stroke="#1295B1"/>
<path d="M950.231 63.6206C943.794 68.9267 936.2 72.135 928.902 72.4044C921.62 72.6732 914.614 70.0185 909.289 63.5588C903.873 56.9882 897.524 47.8764 894.149 39.0957C890.762 30.2836 890.446 22.0398 896.683 16.8985C899.853 14.2855 904.748 12.204 910.52 10.7688C916.283 9.33608 922.878 8.55818 929.409 8.52337C935.942 8.48856 942.395 9.1972 947.877 10.726C953.37 12.2579 957.831 14.5967 960.452 17.777C965.745 24.1979 966.441 32.9677 964.162 41.5236C961.883 50.0774 956.651 58.3285 950.231 63.6206Z" stroke="#1295B1"/>
<path d="M942.674 58.0852C937.934 61.992 932.34 64.3393 926.965 64.5183C921.604 64.6968 916.441 62.7221 912.502 57.9433C908.472 53.0546 903.75 46.2844 901.231 39.7743C898.7 33.2311 898.471 27.1894 903.01 23.4482C905.33 21.5351 908.932 20.0092 913.199 18.9615C917.456 17.9162 922.332 17.3577 927.166 17.3496C932 17.3416 936.773 17.8844 940.828 19.0304C944.893 20.1795 948.178 21.9185 950.107 24.2586C954.015 28.9988 954.557 35.465 952.898 41.786C951.238 48.1053 947.396 54.1924 942.674 58.0852Z" stroke="#1295B1"/>
<path d="M938.451 55.6837C934.985 58.5407 930.892 60.2423 926.958 60.3537C923.039 60.4648 919.258 59.0006 916.357 55.4818C913.367 51.8544 909.865 46.8401 907.988 42.0326C906.097 37.1897 905.936 32.8008 909.2 30.1105C910.884 28.7226 913.514 27.6134 916.652 26.8563C919.78 26.1016 923.368 25.7074 926.927 25.7194C930.487 25.7314 934.001 26.1497 936.985 27.0085C939.98 27.8704 942.384 29.1594 943.794 30.8699C946.663 34.3503 947.09 39.0895 945.894 43.7339C944.699 48.3772 941.9 52.8408 938.451 55.6837Z" stroke="#1295B1"/>
</g>
</svg>
