<svg width="159" height="82" viewBox="0 0 159 82" fill="none" xmlns="http://www.w3.org/2000/svg">
<line x1="27.4789" y1="23.5405" x2="29.2908" y2="44.7838" stroke="url(#paint0_linear)"/>
<line x1="53.3041" y1="23.5493" x2="63.2312" y2="35.7294" stroke="#13859E"/>
<line x1="49.2579" y1="24.4851" x2="46.9211" y2="33.4787" stroke="url(#paint1_linear)"/>
<line x1="73.1327" y1="28.9535" x2="70.0008" y2="35.5956" stroke="url(#paint2_linear)"/>
<line x1="30.8964" y1="21.7286" x2="42.6159" y2="35.0727" stroke="#84DBEE"/>
<circle cx="14.9679" cy="28.8403" r="5.66672" transform="rotate(-12 14.9679 28.8403)" fill="url(#paint3_linear)"/>
<circle cx="27.2034" cy="17.3568" r="6.42228" transform="rotate(-12 27.2034 17.3568)" fill="url(#paint4_linear)"/>
<circle cx="45.834" cy="38.6948" r="5.85561" transform="rotate(-12 45.834 38.6948)" fill="url(#paint5_linear)"/>
<circle cx="50.4969" cy="19.7437" r="5.28894" transform="rotate(-12 50.4969 19.7437)" fill="url(#paint6_linear)"/>
<circle cx="9.496" cy="42.1705" r="3.9667" transform="rotate(-12 9.496 42.1705)" fill="url(#paint7_linear)"/>
<circle cx="61.9052" cy="13.4566" r="4.53337" transform="rotate(-12 61.9052 13.4566)" fill="url(#paint8_linear)"/>
<circle cx="26.1575" cy="59.6785" r="2.64447" transform="rotate(-12 26.1575 59.6785)" fill="url(#paint9_linear)"/>
<circle cx="29.6576" cy="48.8912" r="4.53337" transform="rotate(-12 29.6576 48.8912)" fill="url(#paint10_linear)"/>
<circle cx="34.9393" cy="38.3074" r="2.45558" transform="rotate(-12 34.9393 38.3074)" fill="url(#paint11_linear)"/>
<circle cx="43.7129" cy="53.2428" r="3.77781" transform="rotate(-12 43.7129 53.2428)" fill="url(#paint12_linear)"/>
<circle cx="56.635" cy="49.53" r="3.21114" transform="rotate(-12 56.635 49.53)" fill="url(#paint13_linear)"/>
<circle cx="66.6636" cy="39.4819" r="5.28894" transform="rotate(-12 66.6636 39.4819)" fill="url(#paint14_linear)"/>
<circle cx="74.7115" cy="24.6392" r="5.28894" transform="rotate(-12 74.7115 24.6392)" fill="url(#paint15_linear)"/>
<circle cx="63.8365" cy="26.1784" r="3.02225" transform="rotate(-12 63.8365 26.1784)" fill="url(#paint16_linear)"/>
<circle cx="81.8152" cy="36.2594" r="3.77781" transform="rotate(-12 81.8152 36.2594)" fill="url(#paint17_linear)"/>
<circle cx="79.0427" cy="45.9265" r="2.83336" transform="rotate(-12 79.0427 45.9265)" fill="url(#paint18_linear)"/>
<circle cx="70.1288" cy="50.3309" r="1.88891" transform="rotate(-12 70.1288 50.3309)" fill="url(#paint19_linear)"/>
<circle cx="34.3537" cy="63.7282" r="3.40003" transform="rotate(-12 34.3537 63.7282)" fill="url(#paint20_linear)"/>
<circle cx="28.8277" cy="72.2419" r="2.64447" transform="rotate(-12 28.8277 72.2419)" fill="url(#paint21_linear)"/>
<circle cx="15.548" cy="52.4693" r="5.10005" transform="rotate(-12 15.548 52.4693)" fill="url(#paint22_linear)"/>
<circle cx="20.6708" cy="41.1463" r="2.26669" transform="rotate(-12 20.6708 41.1463)" fill="url(#paint23_linear)"/>
<circle cx="41.5908" cy="12.3678" r="3.77781" transform="rotate(-12 41.5908 12.3678)" fill="url(#paint24_linear)"/>
<path d="M52.08 77.132C51.6547 77.132 51.31 77.0073 51.046 76.758C50.7967 76.494 50.672 76.142 50.672 75.702V62.832C50.672 62.4067 50.7893 62.0767 51.024 61.842C51.2733 61.6073 51.6107 61.49 52.036 61.49H57.448C59.1053 61.49 60.396 61.908 61.32 62.744C62.244 63.5653 62.706 64.724 62.706 66.22C62.706 67.716 62.244 68.882 61.32 69.718C60.396 70.554 59.1053 70.972 57.448 70.972H53.51V75.702C53.51 76.142 53.378 76.494 53.114 76.758C52.8647 77.0073 52.52 77.132 52.08 77.132ZM57.096 68.794C59.0467 68.794 60.022 67.9433 60.022 66.242C60.022 64.5407 59.0467 63.69 57.096 63.69H53.51V68.794H57.096ZM68.4607 77.176C66.8621 77.176 65.5714 76.8607 64.5887 76.23C64.1194 75.9513 63.8847 75.5553 63.8847 75.042C63.8847 74.7487 63.9654 74.514 64.1267 74.338C64.2881 74.1473 64.4861 74.052 64.7207 74.052C64.9701 74.052 65.3147 74.1693 65.7547 74.404C66.2241 74.624 66.6494 74.7927 67.0307 74.91C67.4267 75.0273 67.9254 75.086 68.5267 75.086C69.1427 75.086 69.6194 74.9833 69.9567 74.778C70.3087 74.5727 70.4847 74.2867 70.4847 73.92C70.4847 73.6707 70.4114 73.4727 70.2647 73.326C70.1327 73.1793 69.8834 73.0473 69.5167 72.93C69.1647 72.798 68.6221 72.6513 67.8887 72.49C66.5834 72.226 65.6447 71.852 65.0727 71.368C64.5154 70.884 64.2367 70.2167 64.2367 69.366C64.2367 68.7207 64.4274 68.1413 64.8087 67.628C65.1901 67.1 65.7107 66.6967 66.3707 66.418C67.0454 66.1247 67.8081 65.978 68.6587 65.978C69.2747 65.978 69.8687 66.0587 70.4407 66.22C71.0127 66.3667 71.5261 66.5867 71.9807 66.88C72.4501 67.1733 72.6847 67.562 72.6847 68.046C72.6847 68.3393 72.6041 68.5887 72.4427 68.794C72.2814 68.9847 72.0834 69.08 71.8487 69.08C71.6874 69.08 71.5261 69.0507 71.3647 68.992C71.2181 68.9187 71.0274 68.816 70.7927 68.684C70.3674 68.464 70.0007 68.3027 69.6927 68.2C69.3847 68.0827 69.0034 68.024 68.5487 68.024C68.0061 68.024 67.5734 68.134 67.2507 68.354C66.9427 68.574 66.7887 68.8747 66.7887 69.256C66.7887 69.6227 66.9501 69.9013 67.2727 70.092C67.5954 70.2827 68.2187 70.4733 69.1427 70.664C70.1254 70.8693 70.8954 71.104 71.4527 71.368C72.0101 71.632 72.4061 71.962 72.6407 72.358C72.8901 72.754 73.0147 73.26 73.0147 73.876C73.0147 74.8733 72.5967 75.6727 71.7607 76.274C70.9394 76.8753 69.8394 77.176 68.4607 77.176ZM82.5961 66.814C82.7134 66.55 82.8674 66.3593 83.0581 66.242C83.2634 66.11 83.4834 66.044 83.7181 66.044C84.0554 66.044 84.3561 66.1613 84.6201 66.396C84.8987 66.616 85.0381 66.8947 85.0381 67.232C85.0381 67.3933 84.9941 67.562 84.9061 67.738L78.9001 80.322C78.6507 80.8207 78.2621 81.07 77.7341 81.07C77.3967 81.07 77.0961 80.96 76.8321 80.74C76.5827 80.5347 76.4581 80.2707 76.4581 79.948C76.4581 79.7867 76.5021 79.6033 76.5901 79.398L78.0861 76.252L73.9941 67.738C73.9207 67.5913 73.8841 67.4227 73.8841 67.232C73.8841 66.8947 74.0234 66.6087 74.3021 66.374C74.5954 66.1393 74.9254 66.022 75.2921 66.022C75.5414 66.022 75.7687 66.088 75.9741 66.22C76.1794 66.3373 76.3407 66.528 76.4581 66.792L79.5381 73.59L82.5961 66.814ZM93.6313 77.198C92.1353 77.198 90.8226 76.8753 89.6933 76.23C88.5786 75.5847 87.7206 74.6607 87.1193 73.458C86.518 72.2553 86.2173 70.8473 86.2173 69.234C86.2173 67.6207 86.518 66.22 87.1193 65.032C87.7206 63.8293 88.5786 62.9053 89.6933 62.26C90.8226 61.6147 92.1353 61.292 93.6313 61.292C94.5993 61.292 95.5086 61.4387 96.3593 61.732C97.21 62.0107 97.9653 62.4213 98.6253 62.964C98.816 63.1107 98.948 63.2647 99.0213 63.426C99.0946 63.5873 99.1313 63.7853 99.1313 64.02C99.1313 64.3427 99.0433 64.614 98.8673 64.834C98.6913 65.054 98.4786 65.164 98.2293 65.164C97.936 65.164 97.6353 65.0613 97.3273 64.856C96.6966 64.3867 96.11 64.064 95.5673 63.888C95.0246 63.6973 94.4233 63.602 93.7633 63.602C92.238 63.602 91.0793 64.0787 90.2873 65.032C89.51 65.9853 89.1213 67.386 89.1213 69.234C89.1213 71.0967 89.51 72.5047 90.2873 73.458C91.0793 74.4113 92.238 74.888 93.7633 74.888C94.394 74.888 94.9733 74.7927 95.5013 74.602C96.044 74.4113 96.6526 74.0887 97.3273 73.634C97.474 73.546 97.6206 73.4727 97.7673 73.414C97.914 73.3553 98.068 73.326 98.2293 73.326C98.4786 73.326 98.6913 73.436 98.8673 73.656C99.0433 73.876 99.1313 74.1473 99.1313 74.47C99.1313 74.69 99.0946 74.888 99.0213 75.064C98.948 75.2253 98.816 75.3793 98.6253 75.526C97.9653 76.0687 97.21 76.4867 96.3593 76.78C95.5086 77.0587 94.5993 77.198 93.6313 77.198ZM105.819 65.978C107.315 65.978 108.422 66.352 109.141 67.1C109.874 67.8333 110.241 68.9553 110.241 70.466V75.834C110.241 76.23 110.123 76.5453 109.889 76.78C109.654 77 109.331 77.11 108.921 77.11C108.539 77.11 108.224 76.9927 107.975 76.758C107.74 76.5233 107.623 76.2153 107.623 75.834V75.35C107.373 75.922 106.977 76.3693 106.435 76.692C105.907 77.0147 105.291 77.176 104.587 77.176C103.868 77.176 103.215 77.0293 102.629 76.736C102.042 76.4427 101.58 76.0393 101.243 75.526C100.905 75.0127 100.737 74.4407 100.737 73.81C100.737 73.018 100.935 72.3947 101.331 71.94C101.741 71.4853 102.401 71.1553 103.311 70.95C104.22 70.7447 105.474 70.642 107.073 70.642H107.623V70.136C107.623 69.4173 107.469 68.8967 107.161 68.574C106.853 68.2367 106.354 68.068 105.665 68.068C105.239 68.068 104.807 68.134 104.367 68.266C103.927 68.3833 103.406 68.5593 102.805 68.794C102.423 68.9847 102.145 69.08 101.969 69.08C101.705 69.08 101.485 68.9847 101.309 68.794C101.147 68.6033 101.067 68.354 101.067 68.046C101.067 67.7967 101.125 67.584 101.243 67.408C101.375 67.2173 101.587 67.0413 101.881 66.88C102.394 66.6013 103.003 66.3813 103.707 66.22C104.425 66.0587 105.129 65.978 105.819 65.978ZM105.137 75.196C105.87 75.196 106.464 74.954 106.919 74.47C107.388 73.9713 107.623 73.3333 107.623 72.556V72.094H107.227C106.244 72.094 105.481 72.138 104.939 72.226C104.396 72.314 104.007 72.468 103.773 72.688C103.538 72.908 103.421 73.2087 103.421 73.59C103.421 74.0593 103.582 74.448 103.905 74.756C104.242 75.0493 104.653 75.196 105.137 75.196ZM119.041 66.022C119.423 65.9927 119.723 66.0733 119.943 66.264C120.163 66.4547 120.273 66.7407 120.273 67.122C120.273 67.518 120.178 67.8113 119.987 68.002C119.797 68.1927 119.452 68.3173 118.953 68.376L118.293 68.442C117.428 68.53 116.79 68.8233 116.379 69.322C115.983 69.8207 115.785 70.444 115.785 71.192V75.812C115.785 76.2373 115.653 76.5673 115.389 76.802C115.125 77.022 114.795 77.132 114.399 77.132C114.003 77.132 113.673 77.022 113.409 76.802C113.16 76.5673 113.035 76.2373 113.035 75.812V67.298C113.035 66.8873 113.16 66.572 113.409 66.352C113.673 66.132 113.996 66.022 114.377 66.022C114.759 66.022 115.067 66.132 115.301 66.352C115.536 66.5573 115.653 66.858 115.653 67.254V68.134C115.932 67.4887 116.343 66.99 116.885 66.638C117.443 66.286 118.059 66.088 118.733 66.044L119.041 66.022ZM129.757 74.052C130.006 74.052 130.204 74.1473 130.351 74.338C130.512 74.5287 130.593 74.7853 130.593 75.108C130.593 75.5627 130.321 75.944 129.779 76.252C129.28 76.5307 128.715 76.758 128.085 76.934C127.454 77.0953 126.853 77.176 126.28 77.176C124.55 77.176 123.179 76.6773 122.167 75.68C121.155 74.6827 120.649 73.3187 120.649 71.588C120.649 70.488 120.869 69.5127 121.309 68.662C121.749 67.8113 122.365 67.1513 123.157 66.682C123.963 66.2127 124.873 65.978 125.885 65.978C126.853 65.978 127.696 66.1907 128.415 66.616C129.133 67.0413 129.691 67.6427 130.087 68.42C130.483 69.1973 130.681 70.114 130.681 71.17C130.681 71.8007 130.402 72.116 129.845 72.116H123.355C123.443 73.128 123.729 73.876 124.213 74.36C124.697 74.8293 125.401 75.064 126.325 75.064C126.794 75.064 127.205 75.0053 127.557 74.888C127.923 74.7707 128.334 74.6093 128.789 74.404C129.229 74.1693 129.551 74.052 129.757 74.052ZM125.951 67.914C125.203 67.914 124.601 68.1487 124.147 68.618C123.707 69.0873 123.443 69.762 123.355 70.642H128.327C128.297 69.7473 128.077 69.0727 127.667 68.618C127.256 68.1487 126.684 67.914 125.951 67.914Z" fill="#525353"/>
<defs>
<linearGradient id="paint0_linear" x1="25.6664" y1="23.062" x2="37.5806" y2="27.6129" gradientUnits="userSpaceOnUse">
<stop stop-color="#A6EFFF"/>
<stop offset="1" stop-color="#23A1BB"/>
</linearGradient>
<linearGradient id="paint1_linear" x1="47.6184" y1="23.7751" x2="51.9993" y2="32.1918" gradientUnits="userSpaceOnUse">
<stop stop-color="#167286"/>
<stop offset="1" stop-color="#05C5EF"/>
</linearGradient>
<linearGradient id="paint2_linear" x1="71.6286" y1="28.0041" x2="73.0917" y2="36.0964" gradientUnits="userSpaceOnUse">
<stop stop-color="#A6EFFF"/>
<stop offset="1" stop-color="#23A1BB"/>
</linearGradient>
<linearGradient id="paint3_linear" x1="8.96586" y1="37.5138" x2="24.4084" y2="36.0142" gradientUnits="userSpaceOnUse">
<stop stop-color="#167286"/>
<stop offset="1" stop-color="#05C5EF"/>
</linearGradient>
<linearGradient id="paint4_linear" x1="20.4011" y1="27.1868" x2="37.9026" y2="25.4873" gradientUnits="userSpaceOnUse">
<stop stop-color="#A6EFFF"/>
<stop offset="1" stop-color="#23A1BB"/>
</linearGradient>
<linearGradient id="paint5_linear" x1="39.6319" y1="47.6574" x2="55.5892" y2="46.1078" gradientUnits="userSpaceOnUse">
<stop stop-color="#A6EFFF"/>
<stop offset="1" stop-color="#23A1BB"/>
</linearGradient>
<linearGradient id="paint6_linear" x1="51.5481" y1="18.9961" x2="46.0838" y2="14.1402" gradientUnits="userSpaceOnUse">
<stop stop-color="#0C91AD"/>
<stop offset="1" stop-color="#67D0E6"/>
</linearGradient>
<linearGradient id="paint7_linear" x1="5.29459" y1="48.242" x2="16.1044" y2="47.1923" gradientUnits="userSpaceOnUse">
<stop stop-color="#A6EFFF"/>
<stop offset="1" stop-color="#23A1BB"/>
</linearGradient>
<linearGradient id="paint8_linear" x1="57.1036" y1="20.3954" x2="69.4576" y2="19.1958" gradientUnits="userSpaceOnUse">
<stop stop-color="#A6EFFF"/>
<stop offset="1" stop-color="#23A1BB"/>
</linearGradient>
<linearGradient id="paint9_linear" x1="23.3565" y1="63.7261" x2="30.5631" y2="63.0263" gradientUnits="userSpaceOnUse">
<stop stop-color="#A6EFFF"/>
<stop offset="1" stop-color="#23A1BB"/>
</linearGradient>
<linearGradient id="paint10_linear" x1="24.856" y1="55.83" x2="37.21" y2="54.6303" gradientUnits="userSpaceOnUse">
<stop stop-color="#167286"/>
<stop offset="1" stop-color="#05C5EF"/>
</linearGradient>
<linearGradient id="paint11_linear" x1="32.3384" y1="42.0659" x2="39.0302" y2="41.4161" gradientUnits="userSpaceOnUse">
<stop stop-color="#A6EFFF"/>
<stop offset="1" stop-color="#23A1BB"/>
</linearGradient>
<linearGradient id="paint12_linear" x1="39.7115" y1="59.0252" x2="50.0066" y2="58.0254" gradientUnits="userSpaceOnUse">
<stop stop-color="#A6EFFF"/>
<stop offset="1" stop-color="#23A1BB"/>
</linearGradient>
<linearGradient id="paint13_linear" x1="53.2339" y1="54.445" x2="61.9846" y2="53.5952" gradientUnits="userSpaceOnUse">
<stop stop-color="#A6EFFF"/>
<stop offset="1" stop-color="#23A1BB"/>
</linearGradient>
<linearGradient id="paint14_linear" x1="61.0617" y1="47.5772" x2="75.4748" y2="46.1776" gradientUnits="userSpaceOnUse">
<stop stop-color="#167286"/>
<stop offset="1" stop-color="#05C5EF"/>
</linearGradient>
<linearGradient id="paint15_linear" x1="69.1096" y1="32.7345" x2="83.5226" y2="31.3348" gradientUnits="userSpaceOnUse">
<stop stop-color="#A6EFFF"/>
<stop offset="1" stop-color="#23A1BB"/>
</linearGradient>
<linearGradient id="paint16_linear" x1="60.6354" y1="30.8043" x2="68.8715" y2="30.0045" gradientUnits="userSpaceOnUse">
<stop stop-color="#A6EFFF"/>
<stop offset="1" stop-color="#23A1BB"/>
</linearGradient>
<linearGradient id="paint17_linear" x1="77.8138" y1="42.0418" x2="88.1089" y2="41.042" gradientUnits="userSpaceOnUse">
<stop stop-color="#A6EFFF"/>
<stop offset="1" stop-color="#23A1BB"/>
</linearGradient>
<linearGradient id="paint18_linear" x1="76.0417" y1="50.2633" x2="83.7629" y2="49.5135" gradientUnits="userSpaceOnUse">
<stop stop-color="#A6EFFF"/>
<stop offset="1" stop-color="#23A1BB"/>
</linearGradient>
<linearGradient id="paint19_linear" x1="68.1281" y1="53.2221" x2="73.2756" y2="52.7222" gradientUnits="userSpaceOnUse">
<stop stop-color="#A6EFFF"/>
<stop offset="1" stop-color="#23A1BB"/>
</linearGradient>
<linearGradient id="paint20_linear" x1="30.7525" y1="68.9323" x2="40.018" y2="68.0326" gradientUnits="userSpaceOnUse">
<stop stop-color="#A6EFFF"/>
<stop offset="1" stop-color="#23A1BB"/>
</linearGradient>
<linearGradient id="paint21_linear" x1="26.0267" y1="76.2896" x2="33.2332" y2="75.5898" gradientUnits="userSpaceOnUse">
<stop stop-color="#167286"/>
<stop offset="1" stop-color="#05C5EF"/>
</linearGradient>
<linearGradient id="paint22_linear" x1="10.1462" y1="60.2754" x2="24.0444" y2="58.9258" gradientUnits="userSpaceOnUse">
<stop stop-color="#A6EFFF"/>
<stop offset="1" stop-color="#23A1BB"/>
</linearGradient>
<linearGradient id="paint23_linear" x1="18.27" y1="44.6157" x2="24.4471" y2="44.0158" gradientUnits="userSpaceOnUse">
<stop stop-color="#A6EFFF"/>
<stop offset="1" stop-color="#23A1BB"/>
</linearGradient>
<linearGradient id="paint24_linear" x1="37.5895" y1="18.1502" x2="47.8845" y2="17.1504" gradientUnits="userSpaceOnUse">
<stop stop-color="#A6EFFF"/>
<stop offset="1" stop-color="#23A1BB"/>
</linearGradient>
</defs>
</svg>
