<svg width="140" height="75" viewBox="0 0 140 75" fill="none" xmlns="http://www.w3.org/2000/svg">
<circle cx="10.7329" cy="18.3055" r="4.35704" transform="rotate(-7.5 10.7329 18.3055)" fill="url(#paint0_linear)"/>
<circle cx="20.8043" cy="10.2416" r="4.93798" transform="rotate(-7.5 20.8043 10.2416)" fill="white"/>
<circle cx="33.7976" cy="27.7208" r="4.50227" transform="rotate(-7.5 33.7976 27.7208)" fill="white"/>
<circle cx="38.5151" cy="13.4761" r="4.06657" transform="rotate(-7.5 38.5151 13.4761)" fill="url(#paint1_linear)"/>
<circle cx="5.7347" cy="28.1929" r="3.04993" transform="rotate(-7.5 5.7347 28.1929)" fill="white"/>
<circle cx="47.6387" cy="9.34545" r="3.48563" transform="rotate(-7.5 47.6387 9.34545)" fill="white"/>
<circle cx="17.4497" cy="42.6179" r="2.03328" transform="rotate(-7.5 17.4497 42.6179)" fill="white"/>
<circle cx="20.783" cy="34.5614" r="3.48563" transform="rotate(-7.5 20.783 34.5614)" fill="url(#paint2_linear)"/>
<circle cx="25.4702" cy="26.7667" r="1.88805" transform="rotate(-7.5 25.4702 26.7667)" fill="white"/>
<circle cx="31.2943" cy="38.7442" r="2.90469" transform="rotate(-7.5 31.2943 38.7442)" fill="white"/>
<circle cx="41.4231" cy="36.678" r="2.46899" transform="rotate(-7.5 41.4231 36.678)" fill="white"/>
<circle cx="49.7163" cy="29.5805" r="4.06657" transform="rotate(-7.5 49.7163 29.5805)" fill="url(#paint3_linear)"/>
<circle cx="56.7804" cy="18.6892" r="4.06657" transform="rotate(-7.5 56.7804 18.6892)" fill="white"/>
<circle cx="48.3518" cy="19.2132" r="2.32375" transform="rotate(-7.5 48.3518 19.2132)" fill="white"/>
<circle cx="61.5245" cy="28.0254" r="2.90469" transform="rotate(-7.5 61.5245 28.0254)" fill="white"/>
<circle cx="58.8163" cy="35.2675" r="2.17852" transform="rotate(-7.5 58.8163 35.2675)" fill="white"/>
<circle cx="51.718" cy="38.1059" r="1.45235" transform="rotate(-7.5 51.718 38.1059)" fill="white"/>
<circle cx="23.4877" cy="46.2173" r="2.61422" transform="rotate(-7.5 23.4877 46.2173)" fill="white"/>
<circle cx="18.7385" cy="52.4092" r="2.03328" transform="rotate(-7.5 18.7385 52.4092)" fill="url(#paint4_linear)"/>
<circle cx="9.75204" cy="36.4526" r="3.92133" transform="rotate(-7.5 9.75204 36.4526)" fill="white"/>
<circle cx="14.3622" cy="28.0821" r="1.74281" transform="rotate(-7.5 14.3622 28.0821)" fill="white"/>
<circle cx="32.1333" cy="7.28537" r="2.90469" transform="rotate(-7.5 32.1333 7.28537)" fill="white"/>
<line x1="21.2579" y1="14.9941" x2="21.3652" y2="31.3866" stroke="white" stroke-width="2"/>
<line x1="40.9433" y1="16.212" x2="47.8178" y2="26.147" stroke="white" stroke-width="2"/>
<line x1="23.8642" y1="13.4469" x2="32.0423" y2="24.3822" stroke="white" stroke-width="2"/>
<line x1="37.8611" y1="17.2366" x2="35.5274" y2="23.9893" stroke="white" stroke-width="2"/>
<path d="M38.92 65.1675C38.3787 65.1675 37.94 65.0088 37.604 64.6915C37.2867 64.3555 37.128 63.9075 37.128 63.3475V46.9675C37.128 46.4262 37.2773 46.0062 37.576 45.7075C37.8933 45.4088 38.3227 45.2595 38.864 45.2595H45.752C47.8613 45.2595 49.504 45.7915 50.68 46.8555C51.856 47.9008 52.444 49.3755 52.444 51.2795C52.444 53.1835 51.856 54.6675 50.68 55.7315C49.504 56.7955 47.8613 57.3275 45.752 57.3275H40.74V63.3475C40.74 63.9075 40.572 64.3555 40.236 64.6915C39.9187 65.0088 39.48 65.1675 38.92 65.1675ZM45.304 54.5555C47.7867 54.5555 49.028 53.4728 49.028 51.3075C49.028 49.1422 47.7867 48.0595 45.304 48.0595H40.74V54.5555H45.304ZM59.7682 65.2235C57.7335 65.2235 56.0909 64.8222 54.8402 64.0195C54.2429 63.6648 53.9442 63.1608 53.9442 62.5075C53.9442 62.1342 54.0469 61.8355 54.2522 61.6115C54.4575 61.3688 54.7095 61.2475 55.0082 61.2475C55.3255 61.2475 55.7642 61.3968 56.3242 61.6955C56.9215 61.9755 57.4629 62.1902 57.9482 62.3395C58.4522 62.4888 59.0869 62.5635 59.8522 62.5635C60.6362 62.5635 61.2429 62.4328 61.6722 62.1715C62.1202 61.9102 62.3442 61.5462 62.3442 61.0795C62.3442 60.7622 62.2509 60.5102 62.0642 60.3235C61.8962 60.1368 61.5789 59.9688 61.1122 59.8195C60.6642 59.6515 59.9735 59.4648 59.0402 59.2595C57.3789 58.9235 56.1842 58.4475 55.4562 57.8315C54.7469 57.2155 54.3922 56.3662 54.3922 55.2835C54.3922 54.4622 54.6349 53.7248 55.1202 53.0715C55.6055 52.3995 56.2682 51.8862 57.1082 51.5315C57.9669 51.1582 58.9375 50.9715 60.0202 50.9715C60.8042 50.9715 61.5602 51.0742 62.2882 51.2795C63.0162 51.4662 63.6695 51.7462 64.2482 52.1195C64.8455 52.4928 65.1442 52.9875 65.1442 53.6035C65.1442 53.9768 65.0415 54.2942 64.8362 54.5555C64.6309 54.7982 64.3789 54.9195 64.0802 54.9195C63.8749 54.9195 63.6695 54.8822 63.4642 54.8075C63.2775 54.7142 63.0349 54.5835 62.7362 54.4155C62.1949 54.1355 61.7282 53.9302 61.3362 53.7995C60.9442 53.6502 60.4589 53.5755 59.8802 53.5755C59.1895 53.5755 58.6389 53.7155 58.2282 53.9955C57.8362 54.2755 57.6402 54.6582 57.6402 55.1435C57.6402 55.6102 57.8455 55.9648 58.2562 56.2075C58.6669 56.4502 59.4602 56.6928 60.6362 56.9355C61.8869 57.1968 62.8669 57.4955 63.5762 57.8315C64.2855 58.1675 64.7895 58.5875 65.0882 59.0915C65.4055 59.5955 65.5642 60.2395 65.5642 61.0235C65.5642 62.2928 65.0322 63.3102 63.9682 64.0755C62.9229 64.8408 61.5229 65.2235 59.7682 65.2235ZM77.7586 52.0355C77.908 51.6995 78.104 51.4568 78.3466 51.3075C78.608 51.1395 78.888 51.0555 79.1866 51.0555C79.616 51.0555 79.9986 51.2048 80.3346 51.5035C80.6893 51.7835 80.8666 52.1382 80.8666 52.5675C80.8666 52.7728 80.8106 52.9875 80.6986 53.2115L73.0546 69.2275C72.7373 69.8622 72.2426 70.1795 71.5706 70.1795C71.1413 70.1795 70.7586 70.0395 70.4226 69.7595C70.1053 69.4982 69.9466 69.1622 69.9466 68.7515C69.9466 68.5462 70.0026 68.3128 70.1146 68.0515L72.0186 64.0475L66.8106 53.2115C66.7173 53.0248 66.6706 52.8102 66.6706 52.5675C66.6706 52.1382 66.848 51.7742 67.2026 51.4755C67.576 51.1768 67.996 51.0275 68.4626 51.0275C68.78 51.0275 69.0693 51.1115 69.3306 51.2795C69.592 51.4288 69.7973 51.6715 69.9466 52.0075L73.8666 60.6595L77.7586 52.0355ZM91.8035 65.2515C89.8995 65.2515 88.2288 64.8408 86.7915 64.0195C85.3728 63.1982 84.2808 62.0222 83.5155 60.4915C82.7501 58.9608 82.3675 57.1688 82.3675 55.1155C82.3675 53.0622 82.7501 51.2795 83.5155 49.7675C84.2808 48.2368 85.3728 47.0608 86.7915 46.2395C88.2288 45.4182 89.8995 45.0075 91.8035 45.0075C93.0355 45.0075 94.1928 45.1942 95.2755 45.5675C96.3581 45.9222 97.3195 46.4448 98.1595 47.1355C98.4021 47.3222 98.5701 47.5182 98.6635 47.7235C98.7568 47.9288 98.8035 48.1808 98.8035 48.4795C98.8035 48.8902 98.6915 49.2355 98.4675 49.5155C98.2435 49.7955 97.9728 49.9355 97.6555 49.9355C97.2821 49.9355 96.8995 49.8048 96.5075 49.5435C95.7048 48.9462 94.9581 48.5355 94.2675 48.3115C93.5768 48.0688 92.8115 47.9475 91.9715 47.9475C90.0301 47.9475 88.5555 48.5542 87.5475 49.7675C86.5581 50.9808 86.0635 52.7635 86.0635 55.1155C86.0635 57.4862 86.5581 59.2782 87.5475 60.4915C88.5555 61.7048 90.0301 62.3115 91.9715 62.3115C92.7741 62.3115 93.5115 62.1902 94.1835 61.9475C94.8741 61.7048 95.6488 61.2942 96.5075 60.7155C96.6941 60.6035 96.8808 60.5102 97.0675 60.4355C97.2541 60.3608 97.4501 60.3235 97.6555 60.3235C97.9728 60.3235 98.2435 60.4635 98.4675 60.7435C98.6915 61.0235 98.8035 61.3688 98.8035 61.7795C98.8035 62.0595 98.7568 62.3115 98.6635 62.5355C98.5701 62.7408 98.4021 62.9368 98.1595 63.1235C97.3195 63.8142 96.3581 64.3462 95.2755 64.7195C94.1928 65.0742 93.0355 65.2515 91.8035 65.2515ZM107.315 50.9715C109.219 50.9715 110.628 51.4475 111.543 52.3995C112.476 53.3328 112.943 54.7608 112.943 56.6835V63.5155C112.943 64.0195 112.793 64.4208 112.495 64.7195C112.196 64.9995 111.785 65.1395 111.263 65.1395C110.777 65.1395 110.376 64.9902 110.059 64.6915C109.76 64.3928 109.611 64.0008 109.611 63.5155V62.8995C109.293 63.6275 108.789 64.1968 108.099 64.6075C107.427 65.0182 106.643 65.2235 105.747 65.2235C104.832 65.2235 104.001 65.0368 103.255 64.6635C102.508 64.2902 101.92 63.7768 101.491 63.1235C101.061 62.4702 100.847 61.7422 100.847 60.9395C100.847 59.9315 101.099 59.1382 101.603 58.5595C102.125 57.9808 102.965 57.5608 104.123 57.2995C105.28 57.0382 106.876 56.9075 108.911 56.9075H109.611V56.2635C109.611 55.3488 109.415 54.6862 109.023 54.2755C108.631 53.8462 107.996 53.6315 107.119 53.6315C106.577 53.6315 106.027 53.7155 105.467 53.8835C104.907 54.0328 104.244 54.2568 103.479 54.5555C102.993 54.7982 102.639 54.9195 102.415 54.9195C102.079 54.9195 101.799 54.7982 101.575 54.5555C101.369 54.3128 101.267 53.9955 101.267 53.6035C101.267 53.2862 101.341 53.0155 101.491 52.7915C101.659 52.5488 101.929 52.3248 102.303 52.1195C102.956 51.7648 103.731 51.4848 104.627 51.2795C105.541 51.0742 106.437 50.9715 107.315 50.9715ZM106.447 62.7035C107.38 62.7035 108.136 62.3955 108.715 61.7795C109.312 61.1448 109.611 60.3328 109.611 59.3435V58.7555H109.107C107.856 58.7555 106.885 58.8115 106.195 58.9235C105.504 59.0355 105.009 59.2315 104.711 59.5115C104.412 59.7915 104.263 60.1742 104.263 60.6595C104.263 61.2568 104.468 61.7515 104.879 62.1435C105.308 62.5168 105.831 62.7035 106.447 62.7035ZM124.144 51.0275C124.629 50.9902 125.012 51.0928 125.292 51.3355C125.572 51.5782 125.712 51.9422 125.712 52.4275C125.712 52.9315 125.59 53.3048 125.348 53.5475C125.105 53.7902 124.666 53.9488 124.032 54.0235L123.192 54.1075C122.09 54.2195 121.278 54.5928 120.756 55.2275C120.252 55.8622 120 56.6555 120 57.6075V63.4875C120 64.0288 119.832 64.4488 119.496 64.7475C119.16 65.0275 118.74 65.1675 118.236 65.1675C117.732 65.1675 117.312 65.0275 116.976 64.7475C116.658 64.4488 116.5 64.0288 116.5 63.4875V52.6515C116.5 52.1288 116.658 51.7275 116.976 51.4475C117.312 51.1675 117.722 51.0275 118.208 51.0275C118.693 51.0275 119.085 51.1675 119.384 51.4475C119.682 51.7088 119.832 52.0915 119.832 52.5955V53.7155C120.186 52.8942 120.709 52.2595 121.4 51.8115C122.109 51.3635 122.893 51.1115 123.752 51.0555L124.144 51.0275ZM137.781 61.2475C138.098 61.2475 138.35 61.3688 138.537 61.6115C138.742 61.8542 138.845 62.1808 138.845 62.5915C138.845 63.1702 138.5 63.6555 137.809 64.0475C137.174 64.4022 136.456 64.6915 135.653 64.9155C134.85 65.1208 134.085 65.2235 133.357 65.2235C131.154 65.2235 129.409 64.5888 128.121 63.3195C126.833 62.0502 126.189 60.3142 126.189 58.1115C126.189 56.7115 126.469 55.4702 127.029 54.3875C127.589 53.3048 128.373 52.4648 129.381 51.8675C130.408 51.2702 131.565 50.9715 132.853 50.9715C134.085 50.9715 135.158 51.2422 136.073 51.7835C136.988 52.3248 137.697 53.0902 138.201 54.0795C138.705 55.0688 138.957 56.2355 138.957 57.5795C138.957 58.3822 138.602 58.7835 137.893 58.7835H129.633C129.745 60.0715 130.109 61.0235 130.725 61.6395C131.341 62.2368 132.237 62.5355 133.413 62.5355C134.01 62.5355 134.533 62.4608 134.981 62.3115C135.448 62.1622 135.97 61.9568 136.549 61.6955C137.109 61.3968 137.52 61.2475 137.781 61.2475ZM132.937 53.4355C131.985 53.4355 131.22 53.7342 130.641 54.3315C130.081 54.9288 129.745 55.7875 129.633 56.9075H135.961C135.924 55.7688 135.644 54.9102 135.121 54.3315C134.598 53.7342 133.87 53.4355 132.937 53.4355Z" fill="white"/>
<defs>
<linearGradient id="paint0_linear" x1="10.7329" y1="13.9485" x2="10.7329" y2="22.6625" gradientUnits="userSpaceOnUse">
<stop stop-color="white"/>
<stop offset="1" stop-color="white"/>
</linearGradient>
<linearGradient id="paint1_linear" x1="40.5066" y1="9.72788" x2="37.4795" y2="17.3984" gradientUnits="userSpaceOnUse">
<stop stop-color="white"/>
<stop offset="1" stop-color="white"/>
</linearGradient>
<linearGradient id="paint2_linear" x1="20.783" y1="31.0758" x2="20.783" y2="38.047" gradientUnits="userSpaceOnUse">
<stop stop-color="white"/>
<stop offset="1" stop-color="white"/>
</linearGradient>
<linearGradient id="paint3_linear" x1="49.7163" y1="25.5139" x2="49.7163" y2="33.647" gradientUnits="userSpaceOnUse">
<stop stop-color="white"/>
<stop offset="1" stop-color="white"/>
</linearGradient>
<linearGradient id="paint4_linear" x1="18.7385" y1="50.3759" x2="18.7385" y2="54.4425" gradientUnits="userSpaceOnUse">
<stop stop-color="white"/>
<stop offset="1" stop-color="white"/>
</linearGradient>
</defs>
</svg>
