<svg id="Layer_1" enable-background="new 0 0 512 512" height="512" viewBox="0 0 512 512" width="512" xmlns="http://www.w3.org/2000/svg"><g><path d="m464 32h-40v-8c0-13.233-10.766-24-24-24s-24 10.767-24 24v8h-240v-8c0-13.233-10.766-24-24-24s-24 10.767-24 24v8h-40c-17.645 0-32 14.355-32 32v336c0 17.645 14.355 32 32 32h112c4.418 0 8-3.582 8-8s-3.582-8-8-8h-112c-8.822 0-16-7.178-16-16v-272h448v272c0 8.822-7.178 16-16 16h-88c-4.418 0-8 3.582-8 8s3.582 8 8 8h88c17.645 0 32-14.355 32-32 0-14.641 0-319.924 0-336 0-17.645-14.355-32-32-32zm-72-8c0-4.411 3.589-8 8-8s8 3.589 8 8v40c0 4.411-3.589 8-8 8s-8-3.589-8-8zm-288 0c0-4.411 3.589-8 8-8s8 3.589 8 8v40c0 4.411-3.589 8-8 8s-8-3.589-8-8zm-72 88v-48c0-8.822 7.178-16 16-16h40v16c0 13.233 10.766 24 24 24s24-10.767 24-24v-16h240v16c0 13.233 10.766 24 24 24s24-10.767 24-24v-16h40c8.822 0 16 7.178 16 16v48z"/><path d="m392 336c0-26.468-21.533-48-48-48s-48 21.532-48 48c0 23.741 17.329 43.5 40 47.321v44.679c0 37.495-30.505 68-68 68s-68-30.505-68-68v-44.455c35.948-3.994 64-34.549 64-71.545v-72c0-17.645-14.355-32-32-32-4.418 0-8 3.582-8 8s3.582 8 8 8c8.822 0 16 7.178 16 16v72c0 30.879-25.122 56-56 56s-56-25.121-56-56v-72c0-8.822 7.178-16 16-16 4.418 0 8-3.582 8-8s-3.582-8-8-8c-17.645 0-32 14.355-32 32v72c0 36.996 28.052 67.551 64 71.545v44.455c0 46.317 37.682 84 84 84s84-37.683 84-84v-44.679c22.671-3.821 40-23.58 40-47.321zm-80 0c0-17.645 14.355-32 32-32s32 14.355 32 32c0 14.883-10.214 27.426-24 30.987v-17.152c4.774-2.771 8-7.928 8-13.835 0-8.822-7.178-16-16-16s-16 7.178-16 16c0 5.907 3.226 11.063 8 13.835v17.152c-13.786-3.561-24-16.104-24-30.987z"/></g></svg>