<svg width="141" height="33" viewBox="0 0 141 33" fill="none" xmlns="http://www.w3.org/2000/svg">
<path d="M3.04 26.216C2.344 26.216 1.78 26.012 1.348 25.604C0.94 25.172 0.736 24.596 0.736 23.876V2.816C0.736 2.12 0.928 1.58 1.312 1.196C1.72 0.811999 2.272 0.619998 2.968 0.619998H11.824C14.536 0.619998 16.648 1.304 18.16 2.672C19.672 4.016 20.428 5.912 20.428 8.36C20.428 10.808 19.672 12.716 18.16 14.084C16.648 15.452 14.536 16.136 11.824 16.136H5.38V23.876C5.38 24.596 5.164 25.172 4.732 25.604C4.324 26.012 3.76 26.216 3.04 26.216ZM11.248 12.572C14.44 12.572 16.036 11.18 16.036 8.396C16.036 5.612 14.44 4.22 11.248 4.22H5.38V12.572H11.248ZM29.8448 26.288C27.2288 26.288 25.1168 25.772 23.5088 24.74C22.7408 24.284 22.3568 23.636 22.3568 22.796C22.3568 22.316 22.4888 21.932 22.7528 21.644C23.0168 21.332 23.3408 21.176 23.7248 21.176C24.1328 21.176 24.6968 21.368 25.4168 21.752C26.1848 22.112 26.8808 22.388 27.5048 22.58C28.1528 22.772 28.9688 22.868 29.9528 22.868C30.9608 22.868 31.7408 22.7 32.2928 22.364C32.8688 22.028 33.1568 21.56 33.1568 20.96C33.1568 20.552 33.0368 20.228 32.7968 19.988C32.5808 19.748 32.1728 19.532 31.5728 19.34C30.9968 19.124 30.1088 18.884 28.9088 18.62C26.7728 18.188 25.2368 17.576 24.3008 16.784C23.3888 15.992 22.9328 14.9 22.9328 13.508C22.9328 12.452 23.2448 11.504 23.8688 10.664C24.4928 9.8 25.3448 9.14 26.4248 8.684C27.5288 8.204 28.7768 7.964 30.1688 7.964C31.1768 7.964 32.1488 8.096 33.0848 8.36C34.0208 8.6 34.8608 8.96 35.6048 9.44C36.3728 9.92 36.7568 10.556 36.7568 11.348C36.7568 11.828 36.6248 12.236 36.3608 12.572C36.0968 12.884 35.7728 13.04 35.3888 13.04C35.1248 13.04 34.8608 12.992 34.5968 12.896C34.3568 12.776 34.0448 12.608 33.6608 12.392C32.9648 12.032 32.3648 11.768 31.8608 11.6C31.3568 11.408 30.7328 11.312 29.9888 11.312C29.1008 11.312 28.3928 11.492 27.8648 11.852C27.3608 12.212 27.1088 12.704 27.1088 13.328C27.1088 13.928 27.3728 14.384 27.9008 14.696C28.4288 15.008 29.4488 15.32 30.9608 15.632C32.5688 15.968 33.8288 16.352 34.7408 16.784C35.6528 17.216 36.3008 17.756 36.6848 18.404C37.0928 19.052 37.2968 19.88 37.2968 20.888C37.2968 22.52 36.6128 23.828 35.2448 24.812C33.9008 25.796 32.1008 26.288 29.8448 26.288ZM52.9754 9.332C53.1674 8.9 53.4194 8.588 53.7314 8.396C54.0674 8.18 54.4274 8.072 54.8114 8.072C55.3634 8.072 55.8554 8.264 56.2874 8.648C56.7434 9.008 56.9714 9.464 56.9714 10.016C56.9714 10.28 56.8994 10.556 56.7554 10.844L46.9274 31.436C46.5194 32.252 45.8834 32.66 45.0194 32.66C44.4674 32.66 43.9754 32.48 43.5434 32.12C43.1354 31.784 42.9314 31.352 42.9314 30.824C42.9314 30.56 43.0034 30.26 43.1474 29.924L45.5954 24.776L38.8994 10.844C38.7794 10.604 38.7194 10.328 38.7194 10.016C38.7194 9.464 38.9474 8.996 39.4034 8.612C39.8834 8.228 40.4234 8.036 41.0234 8.036C41.4314 8.036 41.8034 8.144 42.1394 8.36C42.4754 8.552 42.7394 8.864 42.9314 9.296L47.9714 20.42L52.9754 9.332ZM71.033 26.324C68.585 26.324 66.437 25.796 64.589 24.74C62.765 23.684 61.361 22.172 60.377 20.204C59.393 18.236 58.901 15.932 58.901 13.292C58.901 10.652 59.393 8.36 60.377 6.416C61.361 4.448 62.765 2.936 64.589 1.88C66.437 0.823999 68.585 0.295998 71.033 0.295998C72.617 0.295998 74.105 0.535999 75.497 1.016C76.889 1.472 78.125 2.144 79.205 3.032C79.517 3.272 79.733 3.524 79.853 3.788C79.973 4.052 80.033 4.376 80.033 4.76C80.033 5.288 79.889 5.732 79.601 6.092C79.313 6.452 78.965 6.632 78.557 6.632C78.077 6.632 77.585 6.464 77.081 6.128C76.049 5.36 75.089 4.832 74.201 4.544C73.313 4.232 72.329 4.076 71.249 4.076C68.753 4.076 66.857 4.856 65.561 6.416C64.289 7.976 63.653 10.268 63.653 13.292C63.653 16.34 64.289 18.644 65.561 20.204C66.857 21.764 68.753 22.544 71.249 22.544C72.281 22.544 73.229 22.388 74.093 22.076C74.981 21.764 75.977 21.236 77.081 20.492C77.321 20.348 77.561 20.228 77.801 20.132C78.041 20.036 78.293 19.988 78.557 19.988C78.965 19.988 79.313 20.168 79.601 20.528C79.889 20.888 80.033 21.332 80.033 21.86C80.033 22.22 79.973 22.544 79.853 22.832C79.733 23.096 79.517 23.348 79.205 23.588C78.125 24.476 76.889 25.16 75.497 25.64C74.105 26.096 72.617 26.324 71.033 26.324ZM90.9759 7.964C93.4239 7.964 95.2359 8.576 96.4119 9.8C97.6119 11 98.2119 12.836 98.2119 15.308V24.092C98.2119 24.74 98.0199 25.256 97.6359 25.64C97.2519 26 96.7239 26.18 96.0519 26.18C95.4279 26.18 94.9119 25.988 94.5039 25.604C94.1199 25.22 93.9279 24.716 93.9279 24.092V23.3C93.5199 24.236 92.8719 24.968 91.9839 25.496C91.1199 26.024 90.1119 26.288 88.9599 26.288C87.7839 26.288 86.7159 26.048 85.7559 25.568C84.7959 25.088 84.0399 24.428 83.4879 23.588C82.9359 22.748 82.6599 21.812 82.6599 20.78C82.6599 19.484 82.9839 18.464 83.6319 17.72C84.3039 16.976 85.3839 16.436 86.8719 16.1C88.3599 15.764 90.4119 15.596 93.0279 15.596H93.9279V14.768C93.9279 13.592 93.6759 12.74 93.1719 12.212C92.6679 11.66 91.8519 11.384 90.7239 11.384C90.0279 11.384 89.3199 11.492 88.5999 11.708C87.8799 11.9 87.0279 12.188 86.0439 12.572C85.4199 12.884 84.9639 13.04 84.6759 13.04C84.2439 13.04 83.8839 12.884 83.5959 12.572C83.3319 12.26 83.1999 11.852 83.1999 11.348C83.1999 10.94 83.2959 10.592 83.4879 10.304C83.7039 9.992 84.0519 9.704 84.5319 9.44C85.3719 8.984 86.3679 8.624 87.5199 8.36C88.6959 8.096 89.8479 7.964 90.9759 7.964ZM89.8599 23.048C91.0599 23.048 92.0319 22.652 92.7759 21.86C93.5439 21.044 93.9279 20 93.9279 18.728V17.972H93.2799C91.6719 17.972 90.4239 18.044 89.5359 18.188C88.6479 18.332 88.0119 18.584 87.6279 18.944C87.2439 19.304 87.0519 19.796 87.0519 20.42C87.0519 21.188 87.3159 21.824 87.8439 22.328C88.3959 22.808 89.0679 23.048 89.8599 23.048ZM112.613 8.036C113.237 7.988 113.729 8.12 114.089 8.432C114.449 8.744 114.629 9.212 114.629 9.836C114.629 10.484 114.473 10.964 114.161 11.276C113.849 11.588 113.285 11.792 112.469 11.888L111.389 11.996C109.973 12.14 108.929 12.62 108.257 13.436C107.609 14.252 107.285 15.272 107.285 16.496V24.056C107.285 24.752 107.069 25.292 106.637 25.676C106.205 26.036 105.665 26.216 105.017 26.216C104.369 26.216 103.829 26.036 103.397 25.676C102.989 25.292 102.785 24.752 102.785 24.056V10.124C102.785 9.452 102.989 8.936 103.397 8.576C103.829 8.216 104.357 8.036 104.981 8.036C105.605 8.036 106.109 8.216 106.493 8.576C106.877 8.912 107.069 9.404 107.069 10.052V11.492C107.525 10.436 108.197 9.62 109.085 9.044C109.997 8.468 111.005 8.144 112.109 8.072L112.613 8.036ZM130.147 21.176C130.555 21.176 130.879 21.332 131.119 21.644C131.383 21.956 131.515 22.376 131.515 22.904C131.515 23.648 131.071 24.272 130.183 24.776C129.367 25.232 128.443 25.604 127.411 25.892C126.379 26.156 125.395 26.288 124.459 26.288C121.627 26.288 119.383 25.472 117.727 23.84C116.071 22.208 115.243 19.976 115.243 17.144C115.243 15.344 115.603 13.748 116.323 12.356C117.043 10.964 118.051 9.884 119.347 9.116C120.667 8.348 122.155 7.964 123.811 7.964C125.395 7.964 126.775 8.312 127.951 9.008C129.127 9.704 130.039 10.688 130.687 11.96C131.335 13.232 131.659 14.732 131.659 16.46C131.659 17.492 131.203 18.008 130.291 18.008H119.671C119.815 19.664 120.283 20.888 121.075 21.68C121.867 22.448 123.019 22.832 124.531 22.832C125.299 22.832 125.971 22.736 126.547 22.544C127.147 22.352 127.819 22.088 128.563 21.752C129.283 21.368 129.811 21.176 130.147 21.176ZM123.919 11.132C122.695 11.132 121.711 11.516 120.967 12.284C120.247 13.052 119.815 14.156 119.671 15.596H127.807C127.759 14.132 127.399 13.028 126.727 12.284C126.055 11.516 125.119 11.132 123.919 11.132ZM137.464 26.216C136.696 26.216 136.06 25.964 135.556 25.46C135.052 24.932 134.8 24.284 134.8 23.516C134.8 22.748 135.052 22.112 135.556 21.608C136.06 21.08 136.696 20.816 137.464 20.816C138.232 20.816 138.868 21.08 139.372 21.608C139.876 22.112 140.128 22.748 140.128 23.516C140.128 24.284 139.876 24.932 139.372 25.46C138.868 25.964 138.232 26.216 137.464 26.216Z" fill="#1295B1"/>
</svg>
