<svg id="Capa_1" enable-background="new 0 0 512 512" height="512" viewBox="0 0 512 512" width="512" xmlns="http://www.w3.org/2000/svg"><g><g id="Page-1_61_"><g id="_x30_62---Video-Call"><path id="Shape_298_" d="m375.467 0h-238.934c-18.851 0-34.133 15.282-34.133 34.133v443.733c0 18.851 15.282 34.133 34.133 34.133h238.933c18.851 0 34.133-15.282 34.133-34.133v-443.733c.001-18.851-15.281-34.133-34.132-34.133zm-53.829 17.067-10.94 11.674c-3.233 3.436-7.74 5.387-12.459 5.393h-84.48c-4.717 0-9.224-1.952-12.45-5.393l-10.94-11.674zm-202.171 17.066c0-9.426 7.641-17.067 17.067-17.067h30.438l21.879 23.339c6.461 6.876 15.473 10.782 24.909 10.795h84.48c9.436-.013 18.448-3.918 24.909-10.795l21.879-23.339h30.438c9.426 0 17.067 7.641 17.067 17.067v401.067c0 9.426-7.641 17.067-17.067 17.067h-238.933c-9.426 0-17.067-7.641-17.067-17.067v-401.067zm256 460.8h-238.934c-9.426 0-17.067-7.641-17.067-17.067v-13.278c5.166 3.071 11.057 4.709 17.067 4.745h238.933c6.01-.035 11.901-1.673 17.067-4.745v13.278c0 9.426-7.641 17.067-17.066 17.067z"/><path id="Shape_297_" d="m162.133 384h187.733c14.138 0 25.6-11.462 25.6-25.6v-17.067c-.067-38.419-28.488-70.889-66.56-76.041 6.384-7.759 10.974-16.833 13.44-26.573 15.223-.968 27.24-13.307 27.806-28.551s-10.503-28.439-25.613-30.534v-.434c0-37.703-30.564-68.267-68.267-68.267s-68.267 30.564-68.267 68.267v.435c-15.11 2.094-26.179 15.29-25.613 30.534s12.583 27.583 27.806 28.551c2.457 9.711 7.025 18.761 13.38 26.505-38.29 4.933-66.981 37.502-67.046 76.109v17.066c.001 14.138 11.463 25.6 25.601 25.6zm42.923-187.042c20.958 1.152 53.308-.111 68.378-14.814 7.802 11.72 20.127 19.668 34.022 21.939v17.783c0 28.277-22.923 51.2-51.2 51.2s-51.2-22.923-51.2-51.2zm59.733 92.587c8.579-1.064 16.875-3.761 24.439-7.945h.905v21.854c-.001 2.555-1.147 4.976-3.123 6.596-1.981 1.613-4.577 2.261-7.083 1.766l-15.215-3.046zm-42.922-7.945h1.408c7.561 4.177 15.85 6.87 24.422 7.936l-.051 19.166-15.582 3.115c-2.511.513-5.119-.131-7.104-1.752s-3.136-4.048-3.136-6.611zm136.533 59.733v17.067c0 4.713-3.82 8.533-8.533 8.533h-85.333l.111-40.764 11.947 2.381c7.518 1.5 15.312-.448 21.24-5.309s9.366-12.122 9.369-19.788v-21.171c29.362 4.239 51.164 29.385 51.199 59.051zm-25.344-132.266c-.001 5.424-3.42 10.258-8.533 12.066v-24.132c5.113 1.807 8.532 6.642 8.533 12.066zm-76.8-81.067c28.263.033 51.167 22.937 51.2 51.2v7.518c-12.62-3.859-22.38-13.919-25.856-26.65-1.047-4.178-5.043-6.92-9.318-6.395s-7.488 4.153-7.493 8.46c.083 3.196-1.315 6.251-3.789 8.277-10.027 8.986-36.975 10.573-55.945 9.472v-.682c.029-28.265 22.936-51.172 51.201-51.2zm-76.8 81.067c.001-5.424 3.42-10.258 8.533-12.066v24.132c-5.113-1.808-8.532-6.643-8.533-12.066zm-25.856 132.266c.035-29.667 21.837-54.813 51.2-59.051v21.171c-.018 7.674 3.417 14.948 9.353 19.811s13.745 6.797 21.265 5.269l12.186-2.441-.137 40.841h-85.333c-4.713 0-8.533-3.82-8.533-8.533v-17.067z"/><path id="Shape_296_" d="m76.279 175.283c-2.193-.565-4.521-.234-6.47.918s-3.361 3.032-3.923 5.226c-8.204 32.133-8.204 65.812 0 97.946.969 3.77 4.367 6.407 8.26 6.409.719-.001 1.436-.09 2.133-.265 2.194-.563 4.074-1.974 5.226-3.923s1.483-4.277.918-6.47c-7.498-29.344-7.498-60.102 0-89.446.565-2.193.234-4.521-.918-6.47s-3.032-3.362-5.226-3.925z"/><path id="Shape_295_" d="m40.764 312.661c1.061 2.894 3.599 4.991 6.642 5.486 3.042.495 6.115-.689 8.038-3.097s2.399-5.667 1.243-8.524c-18.693-49.029-18.693-103.223 0-152.252 1.155-2.857.68-6.116-1.243-8.524s-4.996-3.592-8.038-3.097-5.581 2.592-6.642 5.486c-20.219 52.977-20.219 111.545 0 164.522z"/><path id="Shape_294_" d="m435.721 285.517c.698.175 1.414.264 2.133.265 3.893-.002 7.291-2.638 8.26-6.409 8.204-32.133 8.204-65.812 0-97.946-1.178-4.567-5.835-7.314-10.402-6.135-4.567 1.178-7.314 5.835-6.135 10.402 7.498 29.344 7.498 60.102 0 89.446-1.166 4.562 1.584 9.205 6.144 10.377z"/><path id="Shape_293_" d="m460.211 317.559c4.397 1.69 9.332-.502 11.025-4.898 20.219-52.977 20.219-111.545 0-164.523-1.061-2.894-3.599-4.991-6.642-5.486-3.042-.495-6.115.689-8.038 3.097s-2.399 5.667-1.243 8.524c18.693 49.029 18.693 103.223 0 152.252-.814 2.113-.756 4.462.163 6.532s2.622 3.689 4.735 4.502z"/></g></g></g></svg>