<svg width="1340" height="385" viewBox="0 0 1340 385" fill="none" xmlns="http://www.w3.org/2000/svg">
<g filter="url(#filter0_d)">
<path d="M108.906 84.2729C38.1044 79.7022 -69 32.8336 -69 32.8336V335.997C-69 335.997 115.798 252.148 232.689 265.952C321.184 276.402 361.37 329.821 450.249 335.997C551.961 343.064 603.94 284.493 705.854 281.822C789.303 279.634 852.263 335.578 935.738 335.997C1022.75 336.434 1052.36 282.202 1139.36 281.822C1229.7 281.427 1373 365 1373 365V0C1373 0 1332.73 33.2654 1302.27 44.8726C1248.35 65.4134 1212.03 37.7539 1154.9 44.8726C1094.45 52.4066 1056.23 84.5698 1003.79 84.2729C897.572 83.6713 847.974 19.1754 741.757 20.2474C640.883 21.2654 602.469 79.6891 501.691 84.2729C411.01 88.3973 383.944 29.2363 293.242 32.8336C229.774 35.3507 172.295 88.3651 108.906 84.2729Z" fill="#4FABBE"/>
</g>
<path d="M164 92C97.9369 87.8238 -2 45 -2 45V322C-2 322 125.931 253.387 235 266C317.573 275.549 413.069 316.357 496 322C590.906 328.457 625.906 274.941 721 272.5C798.864 270.501 857.611 321.617 935.5 322C1016.69 322.399 1044.31 272.847 1125.5 272.5C1209.79 272.139 1343.5 348.5 1343.5 348.5V15C1343.5 15 1305.93 45.3945 1277.5 56C1227.19 74.7682 1193.3 49.4957 1140 56C1083.59 62.8838 1047.93 92.2714 999 92C899.888 91.4504 853.609 32.5206 754.5 33.5C660.377 34.4302 624.534 87.8118 530.5 92C445.888 95.7685 420.633 41.7132 336 45C276.779 47.2999 223.147 95.739 164 92Z" fill="#78C6D7"/>
<line x1="590" y1="94" x2="590" y2="106" stroke="#37AFC8" stroke-width="4" stroke-linecap="round"/>
<line x1="584" y1="100" x2="596" y2="100" stroke="#37AFC8" stroke-width="4" stroke-linecap="round"/>
<line x1="401" y1="169" x2="401" y2="181" stroke="#D9E4E7" stroke-opacity="0.72" stroke-width="4" stroke-linecap="round"/>
<line x1="395" y1="175" x2="407" y2="175" stroke="#D9E4E7" stroke-opacity="0.72" stroke-width="4" stroke-linecap="round"/>
<line x1="118" y1="139" x2="118" y2="151" stroke="#D9E4E7" stroke-opacity="0.72" stroke-width="4" stroke-linecap="round"/>
<line x1="112" y1="145" x2="124" y2="145" stroke="#D9E4E7" stroke-opacity="0.72" stroke-width="4" stroke-linecap="round"/>
<line x1="1065" y1="141" x2="1065" y2="153" stroke="#D9E4E7" stroke-opacity="0.72" stroke-width="4" stroke-linecap="round"/>
<line x1="1059" y1="147" x2="1071" y2="147" stroke="#D9E4E7" stroke-opacity="0.72" stroke-width="4" stroke-linecap="round"/>
<line x1="877" y1="239" x2="877" y2="251" stroke="#D9E4E7" stroke-opacity="0.72" stroke-width="4" stroke-linecap="round"/>
<line x1="871" y1="245" x2="883" y2="245" stroke="#D9E4E7" stroke-opacity="0.72" stroke-width="4" stroke-linecap="round"/>
<line x1="1265" y1="186" x2="1265" y2="198" stroke="#D9E4E7" stroke-opacity="0.72" stroke-width="4" stroke-linecap="round"/>
<line x1="1259" y1="192" x2="1271" y2="192" stroke="#D9E4E7" stroke-opacity="0.72" stroke-width="4" stroke-linecap="round"/>
<line x1="755" y1="252" x2="755" y2="264" stroke="#37AFC8" stroke-width="4" stroke-linecap="round"/>
<line x1="749" y1="258" x2="761" y2="258" stroke="#37AFC8" stroke-width="4" stroke-linecap="round"/>
<line x1="66" y1="242" x2="66" y2="254" stroke="#37AFC8" stroke-width="4" stroke-linecap="round"/>
<line x1="60" y1="248" x2="72" y2="248" stroke="#37AFC8" stroke-width="4" stroke-linecap="round"/>
<line x1="1135" y1="229" x2="1135" y2="241" stroke="#37AFC8" stroke-width="4" stroke-linecap="round"/>
<line x1="1129" y1="235" x2="1141" y2="235" stroke="#37AFC8" stroke-width="4" stroke-linecap="round"/>
<line x1="973" y1="106" x2="973" y2="118" stroke="#37AFC8" stroke-width="4" stroke-linecap="round"/>
<line x1="967" y1="112" x2="979" y2="112" stroke="#37AFC8" stroke-width="4" stroke-linecap="round"/>
<line x1="1327" y1="116" x2="1327" y2="128" stroke="#37AFC8" stroke-width="4" stroke-linecap="round"/>
<line x1="1321" y1="122" x2="1333" y2="122" stroke="#37AFC8" stroke-width="4" stroke-linecap="round"/>
<path d="M1135 80.5366C1135 80.5366 1156.79 74.4763 1171 75.0366C1187.14 75.6729 1194.87 84.7488 1211 85.5366C1225.37 86.2384 1247.5 80.5366 1247.5 80.5366" stroke="white" stroke-opacity="0.35" stroke-width="2" stroke-linecap="round" stroke-dasharray="2 5"/>
<path d="M877.529 286.656C877.529 286.656 892.552 284.933 901.878 286.789C912.468 288.897 916.624 295.699 927.194 297.907C936.61 299.873 951.82 298.423 951.82 298.423" stroke="white" stroke-opacity="0.4" stroke-width="2" stroke-linecap="round" stroke-dasharray="2 5"/>
<path d="M431.529 286.656C431.529 286.656 446.552 284.933 455.878 286.789C466.468 288.897 470.624 295.699 481.194 297.907C490.61 299.873 505.82 298.423 505.82 298.423" stroke="white" stroke-opacity="0.4" stroke-width="2" stroke-linecap="round" stroke-dasharray="2 5"/>
<path d="M152.529 104.656C152.529 104.656 167.552 102.933 176.878 104.789C187.468 106.897 191.624 113.699 202.194 115.907C211.61 117.873 226.82 116.423 226.82 116.423" stroke="white" stroke-opacity="0.4" stroke-width="2" stroke-linecap="round" stroke-dasharray="2 5"/>
<circle cx="312" cy="74" r="10.5" stroke="white" stroke-opacity="0.46" stroke-width="3"/>
<circle cx="45" cy="285" r="10.5" stroke="white" stroke-opacity="0.46" stroke-width="3"/>
<circle cx="492" cy="268" r="10.5" stroke="white" stroke-opacity="0.46" stroke-width="3"/>
<circle cx="259" cy="212" r="10.5" stroke="white" stroke-opacity="0.46" stroke-width="3"/>
<circle cx="853" cy="104" r="10.5" stroke="white" stroke-opacity="0.46" stroke-width="3"/>
<circle cx="513" cy="157" r="10.5" stroke="white" stroke-opacity="0.46" stroke-width="3"/>
<circle cx="993" cy="273" r="12" fill="#9AC8D1"/>
<circle cx="993" cy="273" r="10.5" stroke="white" stroke-opacity="0.46" stroke-width="3"/>
<circle cx="33" cy="120" r="12" fill="#9AC8D1"/>
<circle cx="33" cy="120" r="10.5" stroke="white" stroke-opacity="0.46" stroke-width="3"/>
<circle cx="1177" cy="104" r="12" fill="#9AC8D1"/>
<circle cx="1177" cy="104" r="10.5" stroke="white" stroke-opacity="0.46" stroke-width="3"/>
<circle cx="1307" cy="92" r="10.5" stroke="white" stroke-opacity="0.46" stroke-width="3"/>
<path d="M747.176 43.0902L759.817 52.2746C760.518 52.7839 760.811 53.6866 760.543 54.5106L755.715 69.3713C755.447 70.1954 754.679 70.7533 753.813 70.7533H738.187C737.321 70.7533 736.553 70.1954 736.285 69.3713L731.457 54.5106C731.189 53.6866 731.482 52.7839 732.183 52.2746L744.824 43.0902C745.525 42.5809 746.475 42.5809 747.176 43.0902Z" stroke="white" stroke-opacity="0.48" stroke-width="2"/>
<path d="M358.422 70.5006L375.837 87.178C376.462 87.7773 376.631 88.7114 376.254 89.4917L365.775 111.208C365.398 111.988 364.562 112.437 363.703 112.32L339.812 109.064C338.953 108.947 338.268 108.29 338.114 107.437L333.828 83.7091C333.674 82.8564 334.086 82.0016 334.85 81.5916L356.092 70.183C356.856 69.7731 357.796 69.9013 358.422 70.5006Z" stroke="white" stroke-opacity="0.48" stroke-width="2"/>
<path d="M723.422 150.501L740.837 167.178C741.462 167.777 741.631 168.711 741.254 169.492L730.775 191.208C730.398 191.988 729.562 192.437 728.703 192.32L704.812 189.064C703.953 188.947 703.268 188.29 703.114 187.437L698.828 163.709C698.674 162.856 699.086 162.002 699.85 161.592L721.092 150.183C721.856 149.773 722.796 149.901 723.422 150.501Z" stroke="white" stroke-opacity="0.48" stroke-width="2"/>
<path d="M1168.42 145.501L1185.84 162.178C1186.46 162.777 1186.63 163.711 1186.25 164.492L1175.77 186.208C1175.4 186.988 1174.56 187.437 1173.7 187.32L1149.81 184.064C1148.95 183.947 1148.27 183.29 1148.11 182.437L1143.83 158.709C1143.67 157.856 1144.09 157.002 1144.85 156.592L1166.09 145.183C1166.86 144.773 1167.8 144.901 1168.42 145.501Z" stroke="white" stroke-opacity="0.48" stroke-width="2"/>
<path d="M75.1756 60.0902L87.8168 69.2746C88.5178 69.7839 88.8111 70.6866 88.5434 71.5106L83.7148 86.3713C83.4471 87.1954 82.6792 87.7533 81.8127 87.7533H66.1873C65.3208 87.7533 64.5529 87.1954 64.2852 86.3713L59.4566 71.5106C59.1889 70.6866 59.4822 69.7839 60.1832 69.2746L72.8244 60.0902C73.5254 59.5809 74.4746 59.5809 75.1756 60.0902Z" stroke="white" stroke-opacity="0.48" stroke-width="2"/>
<path d="M1291.18 270.09L1303.82 279.275C1304.52 279.784 1304.81 280.687 1304.54 281.511L1299.71 296.371C1299.45 297.195 1298.68 297.753 1297.81 297.753H1282.19C1281.32 297.753 1280.55 297.195 1280.29 296.371L1275.46 281.511C1275.19 280.687 1275.48 279.784 1276.18 279.275L1288.82 270.09C1289.53 269.581 1290.47 269.581 1291.18 270.09Z" stroke="white" stroke-opacity="0.48" stroke-width="2"/>
<defs>
<filter id="filter0_d" x="-79" y="0" width="1462" height="385" filterUnits="userSpaceOnUse" color-interpolation-filters="sRGB">
<feFlood flood-opacity="0" result="BackgroundImageFix"/>
<feColorMatrix in="SourceAlpha" type="matrix" values="0 0 0 0 0 0 0 0 0 0 0 0 0 0 0 0 0 0 127 0"/>
<feOffset dy="10"/>
<feGaussianBlur stdDeviation="5"/>
<feColorMatrix type="matrix" values="0 0 0 0 0.820833 0 0 0 0 0.820833 0 0 0 0 0.820833 0 0 0 0.25 0"/>
<feBlend mode="normal" in2="BackgroundImageFix" result="effect1_dropShadow"/>
<feBlend mode="normal" in="SourceGraphic" in2="effect1_dropShadow" result="shape"/>
</filter>
</defs>
</svg>
